<svg width="532" height="404" viewBox="0 0 532 404" fill="none" xmlns="http://www.w3.org/2000/svg">
<path d="M415.877 324.998C415.877 324.998 432.255 317.119 413.976 308.068C413.976 308.068 415.512 317.379 413.976 318.226C412.441 319.072 412.002 307.286 412.002 307.091C412.002 306.896 398.476 302.273 397.306 302.663C396.063 303.119 403.886 313.277 401.693 312.3C399.499 311.324 394.455 301.491 394.455 301.491C394.455 301.491 383.853 300.254 381.66 303.249C379.466 306.245 377.711 312.105 381.66 314.645C385.608 317.184 394.674 314.71 393.943 316.272C393.212 317.835 384.219 319.007 382.829 318.291C382.829 318.291 388.386 329.426 395.478 326.756C402.058 324.282 406.592 324.086 406.884 324.607C407.177 325.128 395.186 326.691 394.528 330.468C393.87 334.244 414.561 332.095 414.342 328.644C414.122 325.389 415.877 324.998 415.877 324.998Z" fill="#2B6555"/>
<path d="M415.95 349.025C417.266 347.463 421.434 341.863 419.898 334.57C418.875 329.686 415.658 326.43 413.83 324.868L412.733 325.91C414.415 327.277 417.339 330.337 418.29 334.83C419.752 341.537 415.877 346.746 414.634 348.179L415.95 349.025Z" fill="#684080"/>
<path d="M425.967 324.217C425.967 324.217 414.122 318.552 427.356 311.975C427.356 311.975 426.259 318.747 427.356 319.333C428.453 319.919 428.818 311.389 428.745 311.259C428.745 311.128 438.542 307.742 439.42 308.068C440.297 308.394 434.594 314.449 436.203 315.1C437.811 315.686 443.076 307.677 443.076 307.677C443.076 307.677 449.071 306.375 450.679 308.589C452.288 310.803 453.531 315.035 450.679 316.859C447.828 318.682 441.248 316.924 441.833 318.031C442.417 319.203 448.925 320.049 449.875 319.528C449.875 319.528 445.488 328.254 440.736 325.649C435.983 323.044 431.45 323.305 431.45 323.696C431.45 324.086 440.955 325.584 441.467 328.319C441.979 331.054 426.917 329.491 427.063 327.017C427.283 324.542 425.967 324.217 425.967 324.217Z" fill="#2B6555"/>
<path d="M425.894 341.602C424.943 340.495 421.872 336.393 423.042 331.119C423.773 327.538 426.113 325.193 427.429 324.086L428.233 324.803C426.99 325.779 424.87 327.993 424.212 331.249C423.188 336.133 425.967 339.844 426.844 340.886L425.894 341.602Z" fill="#684080"/>
<path d="M417.12 307.873C417.12 307.873 439.127 297.324 414.561 285.147C414.561 285.147 416.608 297.715 414.561 298.822C412.514 299.929 411.929 284.105 411.929 283.845C411.929 283.585 393.797 277.333 392.115 277.92C390.506 278.506 401.035 289.771 398.037 290.878C395.039 291.984 385.242 277.073 385.242 277.073C385.242 277.073 374.056 274.664 371.131 278.766C368.207 282.868 365.867 290.682 371.131 294.068C376.395 297.454 388.679 294.133 387.582 296.282C386.485 298.431 374.494 299.994 372.667 299.017C372.667 299.017 380.855 315.166 389.629 310.347C398.403 305.528 407.615 306.375 406.884 306.701C406.153 307.091 387.655 310.803 386.778 315.882C385.9 320.961 415.219 317.445 415 312.886C414.707 308.394 417.12 307.873 417.12 307.873Z" fill="#2B6555"/>
<path d="M417.193 340.105C418.948 338.021 424.578 330.468 422.53 320.7C421.141 314.124 416.828 309.761 414.415 307.742L412.953 309.11C415.219 310.998 419.167 315.035 420.483 321.091C422.384 330.077 417.193 337.044 415.585 338.998L417.193 340.105Z" fill="#684080"/>
<path d="M409.435 366.406H432.454C413.726 366.406 409.435 358.154 412.556 348.315C415.053 340.444 413.596 334.88 412.556 333.081H400.851L409.435 366.406Z" fill="#EDEDED"/>
<path fill-rule="evenodd" clip-rule="evenodd" d="M432.454 366.406L439.087 333.081H412.556C413.596 334.88 415.053 340.444 412.556 348.315C409.435 358.154 413.726 366.406 432.454 366.406Z" fill="#FFFFFE"/>
<path d="M287.788 80.1286H399.141C406.233 80.1286 412.009 74.9845 412.009 68.6683V15.4691C412.009 9.1529 406.233 4.00879 399.141 4.00879H287.788C280.696 4.00879 274.92 9.1529 274.92 15.4691V68.6683C274.92 74.9845 280.696 80.1286 287.788 80.1286Z" fill="#a573d6"/>
<path d="M292.906 77.2635H394.023C401.115 77.2635 406.891 72.1193 406.891 65.8032V18.3341C406.891 12.0179 401.115 6.87378 394.023 6.87378H292.979C285.887 6.87378 280.111 12.0179 280.111 18.3341V65.8032C280.038 72.1193 285.814 77.2635 292.906 77.2635Z" fill="#dca1ff"/>
<path d="M385.834 20.0272H389.49V49.0687H385.834V20.0272Z" fill="#aa7bd4"/>
<path d="M379.766 31.6178H383.421V49.0687H379.766V31.6178Z" fill="#aa7bd4"/>
<path d="M373.697 24.3899H377.353V49.0686H373.697V24.3899Z" fill="#aa7bd4"/>
<path d="M367.629 35.7201H371.284V49.0687H367.629V35.7201Z" fill="#aa7bd4"/>
<path d="M361.56 30.7712H365.216V49.0686H361.56V30.7712Z" fill="#aa7bd4"/>
<path d="M355.492 42.3618H359.147V49.0687H355.492V42.3618Z" fill="#aa7bd4"/>
<path d="M349.35 27.1899H353.006V49.0687H349.35V27.1899Z" fill="#aa7bd4"/>
<path d="M299.413 40.8641C302.338 48.9384 312.062 53.4313 321.201 50.8267C330.267 48.2221 335.312 39.5618 332.387 31.4223C329.463 23.348 319.739 18.8551 310.599 21.4597L316.302 37.2827L300.144 29.9247L300.071 29.8596C298.462 33.2456 298.097 37.0874 299.413 40.8641Z" fill="#a573d6"/>
<path d="M297.439 27.1247L297.512 27.1898L313.67 34.5479L307.967 18.7249C303.069 20.1574 299.34 23.2829 297.439 27.1247Z" fill="#a573d6"/>
<path d="M328.22 57.2081H389.49C390.148 57.2081 390.66 56.7523 390.66 56.1662C390.66 55.5802 390.148 55.1244 389.49 55.1244H328.22C327.562 55.1244 327.05 55.5802 327.05 56.1662C327.05 56.7523 327.562 57.2081 328.22 57.2081Z" fill="#a573d6"/>
<path d="M298.609 61.4405H389.782C390.148 61.4405 390.513 61.18 390.513 60.7893C390.513 60.3986 390.221 60.1382 389.782 60.1382H298.609C298.243 60.1382 297.878 60.3986 297.878 60.7893C297.878 61.18 298.243 61.4405 298.609 61.4405Z" fill="#a573d6"/>
<path d="M298.609 65.9987H389.782C390.148 65.9987 390.513 65.7383 390.513 65.3476C390.513 64.9569 390.221 64.6964 389.782 64.6964H298.609C298.243 64.6964 297.878 64.9569 297.878 65.3476C297.878 65.7383 298.243 65.9987 298.609 65.9987Z" fill="#a573d6"/>
<path d="M238.34 217.069L254.863 206.064L288.203 215.441L288.642 214.074L254.571 204.502L238.486 215.181L157.11 137.889L135.614 167.777L113.826 94.3916L104.321 159.377L90.6488 138.67L78 154.363L79.3161 155.144L90.5025 141.275L105.272 163.609L114.338 101.685L134.956 171.228L157.329 140.168L238.34 217.069Z" fill="#a573d6"/>
<path d="M114.118 102.074C116.622 102.074 118.652 100.267 118.652 98.0371C118.652 95.8075 116.622 94 114.118 94C111.615 94 109.585 95.8075 109.585 98.0371C109.585 100.267 111.615 102.074 114.118 102.074Z" fill="#a573d6"/>
<path d="M157.183 143.032C159.686 143.032 161.716 141.224 161.716 138.995C161.716 136.765 159.686 134.958 157.183 134.958C154.679 134.958 152.65 136.765 152.65 138.995C152.65 141.224 154.679 143.032 157.183 143.032Z" fill="#a573d6"/>
<path d="M238.413 219.738C240.916 219.738 242.946 217.93 242.946 215.701C242.946 213.471 240.916 211.663 238.413 211.663C235.909 211.663 233.88 213.471 233.88 215.701C233.88 217.93 235.909 219.738 238.413 219.738Z" fill="#a573d6"/>
<path d="M255.521 209.319C258.025 209.319 260.054 207.512 260.054 205.282C260.054 203.052 258.025 201.245 255.521 201.245C253.018 201.245 250.988 203.052 250.988 205.282C250.988 207.512 253.018 209.319 255.521 209.319Z" fill="#a573d6"/>
<path d="M90.5757 144.008C93.0792 144.008 95.1088 142.201 95.1088 139.971C95.1088 137.742 93.0792 135.934 90.5757 135.934C88.0721 135.934 86.0425 137.742 86.0425 139.971C86.0425 142.201 88.0721 144.008 90.5757 144.008Z" fill="#a573d6"/>
<path d="M343.938 145.261L344.81 148.169C346.386 147.996 348.017 148.329 349.474 148.975L350.749 146.655C350.861 146.479 351.062 146.421 351.245 146.558L353.044 147.77C353.227 147.906 353.306 148.121 353.194 148.297L351.971 150.578C353.291 151.692 354.393 153.059 355.129 154.698L357.612 154.214C357.812 154.155 357.995 154.292 358.074 154.507L358.673 156.615C358.752 156.829 358.639 157.005 358.439 157.063L355.957 157.548C356.197 159.285 356.054 160.943 355.439 162.405L357.797 163.93C357.98 164.067 358.059 164.282 357.946 164.457L356.967 166.192C356.854 166.368 356.654 166.426 356.47 166.289L354.069 164.706C353.14 165.856 351.844 166.732 350.39 167.179L351.261 170.088C351.34 170.302 351.227 170.478 351.027 170.536L349.041 170.924C348.841 170.982 348.658 170.845 348.579 170.631L347.672 167.566C346.156 167.604 344.629 167.192 343.277 166.468L341.82 169.198C341.708 169.374 341.507 169.432 341.324 169.295L339.525 168.083C339.342 167.947 339.263 167.732 339.376 167.556L340.936 164.749C339.852 163.733 338.89 162.444 338.232 161.019L335.053 161.659C334.853 161.717 334.67 161.58 334.591 161.366L333.992 159.258C333.913 159.043 334.026 158.868 334.226 158.809L337.405 158.169C337.148 156.628 337.274 155.165 337.732 153.819L334.825 151.884C334.641 151.747 334.562 151.532 334.675 151.357L335.655 149.622C335.767 149.446 335.968 149.388 336.151 149.525L338.971 151.343C339.804 150.173 340.909 149.257 342.275 148.693L341.369 145.629C341.29 145.414 341.402 145.239 341.603 145.18L343.588 144.793C343.676 144.91 343.859 145.047 343.938 145.261ZM343.428 158.508C344 160.363 345.798 161.574 347.584 161.245C349.37 160.915 350.305 159.121 349.786 157.228C349.214 155.374 347.415 154.162 345.63 154.492C343.844 154.821 342.908 156.615 343.428 158.508Z" fill="#a573d6"/>
<path d="M329.641 116.427L332.679 121.367C335.317 120.219 338.183 119.812 341.033 120.148L341.951 115.174C342.029 114.842 342.342 114.608 342.673 114.726L346.433 115.842C346.764 115.96 347.027 116.311 346.949 116.643L346.04 121.519C348.91 122.752 351.478 124.667 353.595 127.284L357.553 124.967C357.814 124.772 358.241 124.91 358.408 125.241L360.597 128.717C360.815 129.01 360.729 129.439 360.425 129.575L356.466 131.892C357.817 134.898 358.375 138.04 358.21 141.084L363.06 142.573C363.391 142.69 363.653 143.041 363.576 143.373L362.907 147.157C362.83 147.489 362.517 147.723 362.185 147.605L357.24 146.097C356.28 148.73 354.57 151.01 352.318 152.783L355.356 157.723C355.575 158.016 355.489 158.445 355.184 158.581L352.044 160.47C351.783 160.665 351.355 160.528 351.189 160.196L348.019 155.08C345.407 155.935 342.663 156.069 339.968 155.617L338.879 161.449C338.801 161.781 338.488 162.014 338.157 161.897L334.397 160.78C334.066 160.663 333.803 160.311 333.881 159.98L334.987 153.952C332.553 152.759 330.316 150.961 328.419 148.637L323.277 151.655C323.016 151.85 322.589 151.713 322.422 151.381L320.233 147.905C320.015 147.613 320.1 147.183 320.405 147.047L325.547 144.029C324.362 141.355 323.771 138.603 323.806 135.93L317.814 134.109C317.483 133.991 317.22 133.64 317.298 133.308L317.966 129.524C318.044 129.192 318.357 128.958 318.688 129.076L324.489 130.858C325.3 128.245 326.671 125.944 328.731 124.132L325.561 119.017C325.343 118.724 325.429 118.295 325.733 118.158L328.874 116.27C329.047 115.958 329.431 116.036 329.641 116.427ZM335.769 140.959C337.695 144.083 341.55 145.219 344.326 143.603C347.101 141.987 347.83 138.067 345.948 135.001C344.022 131.877 340.166 130.741 337.391 132.357C334.564 134.012 333.843 137.835 335.769 140.959Z" fill="#a573d6A"/>
<path d="M326.1 262.647L326.173 302.433L74.5868 346.06L68.2259 286.349L326.1 262.647Z" fill="white"/>
<path d="M71.8816 289.93L20.263 269.549C20.263 269.549 11.2699 183.011 14.8525 181.123C18.4351 179.234 326.173 183.923 326.173 183.923L326.1 262.647L71.8816 289.93Z" fill="white"/>
<path d="M14.9256 181.123C14.9256 181.123 1.03391 187.7 0.0834246 195.644C-0.793946 203.588 5.49388 273.131 7.46796 274.303C9.51516 275.475 14.8525 324.312 14.8525 324.312L74.5137 345.995L71.8085 289.866L20.1898 269.485L18.6544 183.207L14.9256 181.123Z" fill="#F0F0F0"/>
<path d="M169.416 157.03C127.156 158.332 93.6696 176.434 79.9242 195.904C73.7826 204.629 64.7164 223.382 64.2046 242.787C64.2046 243.112 64.2046 243.503 64.2046 244.024C64.1315 250.796 64.9357 276.061 81.752 283.94C92.8654 289.149 101.712 282.442 127.96 277.949C167.807 271.177 186.817 279.903 190.765 273.521C194.787 267.01 257.738 215.243 169.416 157.03Z" fill="#DBE2E8"/>
<path d="M200.124 166.537C200.124 166.537 186.305 191.997 181.626 204.239L181.041 204.174C181.041 204.174 179.286 193.625 172.194 218.434C165.175 243.178 180.456 247.605 180.456 247.605L183.893 239.466C186.671 239.206 200.709 237.968 200.124 237.838C199.466 237.643 196.03 209.578 200.563 188.806C205.169 168.035 200.124 166.537 200.124 166.537Z" fill="#282323"/>
<path d="M181.26 168.1C181.26 168.1 181.334 186.658 174.315 189.653C167.369 192.648 160.715 205.215 160.715 205.215L165.468 173.765L181.26 168.1Z" fill="white"/>
<path d="M200.124 166.537C199.32 165.495 195.225 162.369 195.225 162.369H188.864L170.732 166.276C170.732 166.276 172.341 170.053 173.364 175.718L159.692 210.88L153.185 237.708L157.498 242.526C157.645 243.503 157.791 243.698 157.791 242.852C158.01 238.619 174.973 222.796 190.692 198.118C206.412 173.374 200.928 167.579 200.124 166.537Z" fill="#272323"/>
<path d="M170.513 179.82L155.086 226.834C155.086 226.834 180.456 181.383 179.433 168.099C178.409 154.816 170.513 179.82 170.513 179.82Z" fill="white"/>
<path d="M153.112 147.979L154.501 148.5L154.208 149.477L153.258 149.867H152.527L153.112 147.979Z" fill="#a573d6"/>
<path d="M181.26 168.1C181.26 168.1 179.652 169.988 177.678 172.527C177.459 172.788 177.312 172.983 177.093 173.244C173.876 177.346 169.855 182.555 169.343 183.988C168.539 186.397 148.798 164.453 153.916 147.263C159.034 130.072 178.117 150.974 178.117 150.974L178.775 154.425L178.848 154.686L181.26 168.1Z" fill="#FFB27D"/>
<path d="M181.26 168.1C181.26 168.1 179.652 169.988 177.678 172.527C177.459 172.788 177.312 172.983 177.093 173.244C167.296 169.923 163.713 149.802 162.836 150.063C161.958 150.323 157.571 147.393 157.571 147.393V142.9L165.248 144.528L172.341 148.891L178.775 154.425L178.848 154.686L181.26 168.1Z" fill="#ED7D2B"/>
<path d="M165.395 151.3C165.395 151.3 175.484 172.332 189.815 170.118C204.145 167.904 207.947 126.361 199.466 118.872C190.912 111.384 169.708 118.872 169.708 118.872C169.708 118.872 157.864 143.486 165.395 151.3Z" fill="#FFB27D"/>
<path d="M176.216 136.909C176.362 135.542 176.289 134.044 177.166 132.872C177.97 131.7 179.579 131.114 180.602 130.072C181.824 128.839 182.07 127.203 182.201 125.5C182.304 124.144 182.334 122.747 182.723 121.477C182.796 121.151 182.942 120.826 183.235 120.63C183.527 120.435 183.966 120.37 184.331 120.37C186.706 120.259 189.105 120.38 191.5 120.372C193.308 120.367 195.114 120.287 196.907 119.979C197.638 119.849 198.369 119.719 198.954 119.328C199.832 118.742 200.27 117.7 200.197 116.724C200.124 115.747 199.685 114.835 199.173 113.989C196.541 109.951 191.35 107.803 186.378 106.37C181.187 104.872 175.631 103.896 170.22 104.547C167.881 104.807 165.541 105.459 163.421 106.435C161.3 107.412 159.399 108.714 157.937 110.342C157.571 110.733 157.279 111.189 156.913 111.644C156.767 111.84 156.548 111.97 156.402 112.165C156.182 112.426 156.036 112.686 155.817 112.947C155.086 113.989 154.428 115.03 153.916 116.137C152.819 118.351 152.015 120.696 151.722 123.04C151.649 123.626 151.576 124.212 151.503 124.733C151.43 125.905 151.43 127.142 151.869 128.249C152.234 129.226 152.965 130.072 153.404 130.984C154.354 132.937 154.208 135.151 154.062 137.3C153.916 139.318 153.77 141.337 153.623 143.291C153.477 144.984 153.404 146.937 154.72 148.239C155.013 148.565 155.451 148.825 155.963 148.825C156.255 148.825 156.475 148.695 156.767 148.63C158.814 147.653 159.984 145.7 161.227 143.942C162.543 142.053 164.079 140.295 165.833 138.732C166.345 138.277 166.93 137.821 167.588 137.691C169.855 137.3 171.244 140.36 173.51 140.36C175.192 140.36 176.143 138.667 176.362 137.235C176.216 137.039 176.216 136.974 176.216 136.909Z" fill="#642C2C"/>
<path d="M183.235 120.63C182.942 120.826 182.796 121.151 182.723 121.477C182.334 122.747 182.304 124.144 182.201 125.5C186.065 126.202 190.895 126.717 194.974 126.478C195.322 126.458 195.664 126.432 196 126.4C196.308 126.371 196.611 126.337 196.907 126.298C198.163 126.132 199.306 125.873 200.272 125.5C202.108 124.791 203.307 123.672 203.441 122C203.593 120.107 202.378 117.505 199.173 113.989C199.685 114.835 200.124 115.747 200.197 116.724C200.27 117.7 199.832 118.742 198.954 119.328C198.369 119.719 197.638 119.849 196.907 119.979C195.114 120.287 193.308 120.367 191.5 120.372C189.105 120.38 186.706 120.259 184.331 120.37C183.966 120.37 183.527 120.435 183.235 120.63Z" fill="#642C2C"/>
<path d="M203.441 122C203.307 123.672 202.108 124.791 200.272 125.5C202.828 124.78 205.489 128.248 206.5 130.072C206.9 127.33 204.628 123.548 203.441 122Z" fill="#642C2C"/>
<path d="M196.907 126.298C199.271 127.699 203.9 131.4 203.5 135C204.124 131.833 204.353 125.5 200.272 125.5C199.306 125.873 198.163 126.132 196.907 126.298Z" fill="#642C2C"/>
<path d="M194.974 126.478C195.043 126.655 195.109 126.829 195.171 127L198.954 132L196 126.4C195.664 126.432 195.322 126.458 194.974 126.478Z" fill="#642C2C"/>
<path d="M182.201 125.5L196 132.5C196.194 131.587 196.128 129.64 195.171 127C195.109 126.829 195.043 126.655 194.974 126.478C190.895 126.717 186.065 126.202 182.201 125.5Z" fill="#642C2C"/>
<path d="M167.661 138.342C167.661 138.342 162.909 133.002 160.423 135.607C157.937 138.212 157.645 151.495 168.685 147.784C168.685 147.849 168.685 139.319 167.661 138.342Z" fill="#FFB27D"/>
<path d="M152.38 151.56C152.38 151.56 164.664 182.23 167.223 183.467C169.782 184.704 159.765 214.462 159.765 214.462L151.43 238.815L148.286 168.751L152.38 151.56Z" fill="white"/>
<path d="M146.239 154.1C146.239 154.1 129.057 148.37 109.024 163.02L104.929 214.917L111.729 239.466L133.078 245.457L155.817 247.605L153.185 186.006L146.239 154.1Z" fill="#272323"/>
<path d="M115.019 205.215C115.019 205.215 109.682 231.978 119.113 235.624C128.545 239.271 100.981 235.624 100.981 235.624L97.1791 226.834L100.908 216.871L115.019 205.215Z" fill="#1F1B1B"/>
<path d="M153.111 147.979C153.111 147.979 142.729 154.49 141.925 156.639C141.121 158.788 148.14 230.936 151.43 238.815C154.72 246.694 160.715 184.183 160.715 184.183L153.111 147.979Z" fill="#1F1B1B"/>
<path d="M208.02 332.841L208.24 350.553C208.24 350.553 191.204 354.329 190.473 350.488C189.742 346.646 191.789 330.367 191.789 330.367L208.02 332.841Z" fill="#FFB27D"/>
<path d="M184.404 359.083C184.404 359.083 183.966 365.985 185.282 366.506C186.598 367.027 197.784 366.441 197.784 366.441L184.404 359.083Z" fill="#ED7D2B"/>
<path d="M199.173 368.59C199.173 368.59 200.928 374.906 203.122 375.427C205.315 375.883 238.07 375.362 232.66 369.501C227.249 363.641 199.173 368.59 199.173 368.59Z" fill="#ED7D2B"/>
<path d="M208.24 348.86C208.24 348.86 232.952 366.767 232.66 369.501C232.367 372.236 204.876 376.338 196.834 369.306C188.791 362.274 185.72 361.362 184.331 361.362C182.942 361.362 182.065 358.757 182.43 357.65C182.796 356.543 185.209 347.623 187.768 347.948C190.327 348.209 192.154 349.576 192.154 349.576L208.24 348.86Z" fill="#F99746"/>
<path d="M199.173 240.117C199.173 240.117 217.306 241.159 216.355 257.438C215.478 273.717 213.577 335.772 207.801 336.032C202.025 336.293 192.447 335.381 190.692 335.12C188.864 334.86 178.555 302.107 181.699 274.238C181.699 274.238 127.887 277.819 125.036 274.042C122.257 270.331 125.036 252.033 125.036 252.033L165.468 243.047L199.173 240.117Z" fill="#252121"/>
<path d="M84.311 348.078C84.311 348.078 82.1176 364.422 82.3369 365.529C82.5562 366.636 102.955 367.808 102.955 367.808C102.955 367.808 104.271 349.511 100.762 346.971C97.3253 344.432 84.311 348.078 84.311 348.078Z" fill="#FFB27D"/>
<path d="M65.6669 395.287C65.6669 395.287 65.2282 399.715 66.1055 400.366C66.9829 401.017 75.9029 408.505 94.0352 399.129C94.0352 399.129 95.6437 394.571 94.0352 392.292C92.4267 389.948 65.6669 395.287 65.6669 395.287Z" fill="#ED7D2B"/>
<path d="M97.5447 387.473C97.5447 387.473 104.271 385.52 104.929 382.915C105.587 380.31 103.832 374.58 103.832 374.58L97.5447 387.473Z" fill="#ED7D2B"/>
<path d="M80.2897 365.855C80.5091 365.464 80.8015 365.073 81.1671 364.813C82.1176 364.032 83.5068 363.38 84.6766 362.86C87.3087 361.622 90.2333 360.841 93.1578 361.101C96.3017 361.362 99.2263 362.664 101.566 364.553C102.297 365.204 103.028 365.855 103.613 366.636C104.856 368.394 105.368 370.478 105.441 372.562C105.514 373.669 105.441 374.711 105.075 375.752C104.783 376.534 104.271 377.185 103.759 377.901C99.8843 383.306 96.9598 389.231 94.9857 395.417C94.8394 395.808 94.6932 396.264 94.4739 396.654C94.0352 397.306 93.2309 397.696 92.4998 398.022C90.0139 399.129 87.3818 399.845 84.7497 400.431C81.9714 401.017 79.193 401.538 76.3416 401.408C73.4901 401.278 70.6386 400.561 68.4452 398.933C66.9829 397.826 65.8131 396.264 65.8131 394.571C65.8131 393.399 66.3249 392.292 66.8367 391.185C70.7849 383.241 76.634 376.143 79.6317 367.873C79.7048 367.157 79.9242 366.441 80.2897 365.855Z" fill="#F99746"/>
<path d="M125.621 256.136C125.621 256.136 97.106 242.136 81.9713 247.736C66.8367 253.336 79.193 347.427 82.1907 348.665C85.1884 349.902 100.908 350.423 102.955 348.665C104.929 346.906 112.314 283.875 109.901 278.145C109.901 278.145 120.649 281.14 130.373 271.959C139.951 262.712 125.621 256.136 125.621 256.136Z" fill="#252121"/>
<path d="M82.1176 265.186C82.1176 265.186 90.7594 259.541 95 251.858C92.3822 251.858 90.5 252.303 90.5 252.303L87.7474 243.503L82.1176 265.186Z" fill="#141111"/>
<path d="M179.433 234.517C179.433 234.517 175.338 245.587 181.407 248.843C187.475 252.098 190.692 240.443 190.692 240.443V237.252L185.501 235.559L179.433 234.517Z" fill="#ED7D2B"/>
<path d="M201.221 242.787C201.586 243.959 202.829 246.759 200.563 248.256C198.223 249.754 199.832 251.187 199.32 251.708C198.808 252.229 196.103 255.094 195.591 256.266C195.225 257.047 191.058 259.261 187.621 258.74C187.475 258.74 187.402 258.675 187.256 258.675C187.183 258.675 187.183 258.675 187.11 258.675C185.794 258.349 184.624 257.633 183.819 256.331C183.381 255.615 183.015 254.963 182.65 254.377C182.065 253.335 181.626 252.554 181.26 251.838C180.383 250.08 180.164 249.363 180.456 249.233C180.676 249.168 179.944 248.256 179.579 247.28C179.213 246.368 179.14 245.391 180.237 244.936C180.31 244.936 180.383 244.87 180.383 244.87C180.383 244.87 176.508 240.312 181.114 240.443C181.407 240.443 181.772 240.508 182.138 240.508C182.138 240.508 181.626 238.619 183.088 238.033C183.381 237.903 183.673 237.838 184.112 237.838C184.843 237.838 185.647 237.903 186.525 238.033C186.598 238.033 186.671 238.033 186.817 238.098C187.695 238.229 188.645 238.359 189.522 238.424C190.838 238.489 192.081 238.424 192.959 237.903C194.567 236.926 186.013 237.057 181.626 237.187C180.164 237.252 179.213 237.252 179.213 237.252L178.19 236.21L179.36 234.517L180.091 233.475C180.091 233.475 181.845 231.978 184.039 230.415C186.598 228.657 189.669 226.834 191.204 227.42C193.982 228.461 197.638 229.243 197.199 231.196C196.761 233.215 196.176 233.931 197.273 234.452C198.369 234.973 202.098 238.294 202.098 239.531C202.098 240.703 200.855 241.615 201.221 242.787Z" fill="#FFB27D"/>
<path d="M184.331 250.34C184.331 250.34 183.381 253.336 182.65 254.312C182.065 253.271 181.626 252.489 181.26 251.773L181.334 251.578L184.331 250.34Z" fill="#ED7D2B"/>
<path d="M183.381 245.782C183.381 245.782 182.357 247.67 179.579 247.15C179.213 246.238 179.14 245.261 180.237 244.805L183.381 245.782Z" fill="#ED7D2B"/>
<path d="M187.548 258.74C187.402 258.74 187.329 258.675 187.183 258.675C187.475 258.675 187.621 258.675 187.548 258.74Z" fill="#ED7D2B"/>
<path d="M195.445 238.554C194.275 238.619 193.544 238.88 189.522 238.424C188.426 238.294 187.548 238.164 186.817 238.099C186.744 238.099 186.671 238.099 186.525 238.033C184.697 237.838 183.819 237.773 183.161 237.968C182.796 238.099 182.211 237.643 181.626 237.122C180.602 236.08 179.433 234.517 179.433 234.517L179.359 234.452L180.091 233.41C180.091 233.41 184.331 230.024 186.452 228.787L188.499 232.108C188.499 232.108 191.57 236.406 194.713 235.299C194.713 235.299 196.614 238.489 195.445 238.554Z" fill="#ED7D2B"/>
<path d="M188.06 231.392C188.06 231.392 191.862 237.838 195.81 234.778C195.883 234.778 192.374 237.382 188.06 231.392Z" fill="#231F20"/>
<path d="M182.138 240.443C182.138 240.443 185.647 243.438 189.522 242.722C189.522 242.722 186.086 243.112 182.138 240.443Z" fill="#231F20"/>
<path d="M180.456 244.805C180.456 244.805 183.893 247.605 187.548 246.889C187.475 246.889 185.501 247.736 180.456 244.805Z" fill="#231F20"/>
<path d="M180.456 249.168C180.456 249.168 184.478 251.903 185.794 251.642C185.794 251.642 184.843 252.424 180.456 249.168Z" fill="#231F20"/>
<path d="M182.503 255.484C182.503 255.484 181.334 254.182 179.14 254.898C176.947 255.615 181.845 256.656 181.845 256.656L182.503 255.484Z" fill="#ED7D2B"/>
<path d="M149.017 258.545C149.017 258.545 152.234 255.875 152.088 254.312C151.942 252.75 145.873 253.466 145.873 253.466V257.177L149.017 258.545Z" fill="#6790D6"/>
<path d="M153.112 241.029C153.112 241.029 164.152 235.494 165.907 233.996C167.588 232.499 177.385 232.499 179.433 234.517C181.553 236.536 181.407 235.689 181.919 235.689C182.43 235.689 183.893 239.596 175.704 238.164C167.515 236.731 168.392 236.731 167.661 236.406C167.003 236.08 182.65 241.094 183.673 243.699C184.697 246.303 181.407 248.322 173.437 245.001C173.437 245.001 184.843 249.233 184.331 250.34C183.819 251.382 182.65 254.508 179.433 254.182C176.216 253.856 172.925 251.057 172.925 251.057C172.925 251.057 179.506 256.005 181.772 255.484C184.039 254.898 180.164 259.066 179.36 259.066C178.555 259.131 171.902 257.047 170.805 256.396C170.805 256.396 177.678 259.326 178.482 259.391C179.286 259.456 177.532 265.252 165.76 260.824C153.989 256.396 146.385 254.638 146.385 254.638L153.112 241.029Z" fill="#FFB27D"/>
<path d="M79.0468 239.205C79.0468 239.205 59.306 257.047 73.0514 265.317C86.7969 273.586 93.6696 242.266 93.6696 242.266L79.0468 239.205Z" fill="#1F1B1B"/>
<path d="M108.951 163.021C108.951 163.021 129.203 165.755 116.408 201.243C116.408 201.243 106.026 228.396 109.535 229.764C113.045 231.131 152.819 238.815 154.135 239.531C155.451 240.247 146.385 249.624 149.529 257.242C152.673 264.861 79.8511 250.861 76.9996 242.071C74.1482 233.215 88.5517 165.951 108.951 163.021Z" fill="#282323"/>
<path d="M181.041 241.55C181.041 241.55 184.185 242.787 183.893 244.805C183.893 244.805 184.112 243.047 181.041 241.55Z" fill="#ED7D2B"/>
<path d="M184.331 250.21L182.503 248.908C182.503 248.843 184.331 249.884 184.331 250.21Z" fill="#ED7D2B"/>
<path d="M170.074 237.122C170.074 237.122 166.345 237.382 166.126 237.773C166.126 237.838 167.076 237.447 170.074 237.122Z" fill="#231F20"/>
<path d="M174.9 245.587C174.9 245.587 171.536 244.024 171.171 244.089C171.244 244.024 173.437 244.871 174.9 245.587Z" fill="#231F20"/>
<path d="M174.9 252.424C174.9 252.424 172.487 251.447 172.194 251.057Z" fill="#231F20"/>
<path d="M144.85 153.709L144.192 180.081L148.286 186.657L151.869 221.559L149.529 185.941L145.8 179.82L144.85 153.709Z" fill="#141111"/>
<path d="M220.23 353.483C220.23 353.483 220.303 357.325 226.591 357.325C232.879 357.325 265.707 346.906 266.512 346.19C267.316 345.474 265.854 343.325 265.634 342.999C265.415 342.674 220.23 353.483 220.23 353.483Z" fill="#14024A"/>
<path d="M339.114 372.887C339.114 372.887 338.09 376.143 337.725 376.273C337.359 376.404 283.328 375.622 284.79 371.194C286.253 366.767 285.814 367.678 285.814 367.678L339.114 372.887Z" fill="#14024A"/>
<path d="M311.989 342.674C311.989 342.674 309.43 356.543 307.967 357.064C306.505 357.585 293.345 357.064 293.125 355.762C292.906 354.46 295.392 338.441 295.392 338.441L311.989 342.674Z" fill="#FFB27D"/>
<path d="M309.503 353.548C309.503 353.548 304.604 352.962 304.604 353.548C304.604 354.134 304.897 358.432 305.628 358.497C306.359 358.562 310.088 358.692 310.307 358.497C310.453 358.301 309.503 353.548 309.503 353.548Z" fill="#0B002C"/>
<path d="M310.234 356.804C310.307 356.804 310.307 356.869 310.38 356.869C311.111 357.195 311.769 357.585 312.427 357.976C314.182 359.018 315.864 360.125 317.619 361.167C319.593 362.404 321.494 363.576 323.687 364.422C325.515 365.139 327.489 365.594 329.463 366.115C332.826 367.027 336.19 368.069 339.407 369.306C339.772 369.436 340.211 369.632 340.43 370.022C340.576 370.348 340.43 370.673 340.284 370.999C339.918 371.911 339.48 372.887 338.456 373.213C338.091 373.343 337.652 373.343 337.286 373.343C326.831 373.408 316.376 373.018 305.993 372.236C300.875 371.846 295.684 371.39 290.639 370.348C289.177 370.087 287.715 369.697 286.472 369.046C286.106 368.85 285.741 368.655 285.668 368.264C285.595 368.069 285.741 367.808 285.814 367.613C286.984 364.748 288.154 361.948 289.396 359.148C290.054 357.716 290.639 356.348 291.297 354.981C291.882 353.743 292.175 353.157 293.856 353.483C298.463 354.395 302.996 355.241 307.602 356.153C308.479 356.283 309.43 356.478 310.234 356.804Z" fill="#0B002C"/>
<path d="M235.731 325.093C235.731 325.093 242.092 338.702 242.896 338.767C243.7 338.832 256.934 337.269 257.957 336.032C258.981 334.86 255.033 324.376 255.033 324.376L235.731 325.093Z" fill="#FFB27D"/>
<path d="M241.799 336.358C241.799 336.358 245.309 336.553 245.893 337.009C246.478 337.465 245.893 340.46 245.893 340.46C245.893 340.46 242.896 340.655 241.799 340.46C240.702 340.265 241.799 336.358 241.799 336.358Z" fill="#0B002C"/>
<path d="M241.799 340.46C241.799 340.46 219.499 352.376 220.23 353.483C220.962 354.59 223.959 354.59 225.202 354.916C226.372 355.241 264.83 344.692 265.561 343.781C266.292 342.869 260.078 334.339 258.104 334.209C256.129 334.079 244.358 338.962 244.358 338.962L241.799 340.46Z" fill="#0B002C"/>
<path d="M268.632 248.647C268.632 248.647 251.377 279.577 299.121 277.949C299.121 277.949 292.54 341.437 294.807 342.218C297.073 342.999 312.647 343.846 312.647 343.846C312.647 343.846 337.798 270.786 321.347 250.47C304.897 230.154 268.632 248.647 268.632 248.647Z" fill="#201D1D"/>
<path d="M274.993 269.419C274.993 269.419 248.964 280.879 245.528 278.47C242.092 276.061 257.665 325.874 256.422 326.395C255.252 326.916 238.29 330.758 236.681 327.046C235.073 323.335 212.48 291.949 216.428 268.508C220.377 245.066 229.077 247.215 229.077 247.215L257.299 244.024H269.582L277.406 258.61L274.993 269.419Z" fill="#201D1D"/>
<path d="M279.965 138.928C279.965 138.928 282.889 144.918 285.448 146.937C288.007 148.956 286.253 161.393 286.253 161.393L281.866 167.448L275.578 176.63L268.998 177.606L259.493 177.02L257.665 171.616L254.375 161.328L252.181 155.142L253.497 151.235L257.226 148.63L279.965 138.928Z" fill="#FFB27D"/>
<path d="M281.061 141.012C281.061 141.012 279.307 154.946 269.509 156.9C258.762 158.983 258.03 152.342 258.03 152.342L263.368 146.091L271.63 145.049L281.061 141.012Z" fill="#ED7D2B"/>
<path d="M262.198 186.657H267.608L269.582 192.713L259.858 198.378L254.448 242.982L229.077 244.024L239.679 200.006L240.264 192.062L262.198 186.657Z" fill="white"/>
<path d="M256.568 159.895C256.568 159.895 262.637 170.9 264.611 171.811C266.585 172.723 282.451 157.421 282.451 157.421L285.96 166.602L270.972 182.23L259.785 181.578L255.91 174.546L256.568 159.895Z" fill="white"/>
<path d="M256.056 158.853C256.056 158.853 264.538 175.978 261.613 179.039C258.688 182.099 248.233 180.927 248.233 180.927L246.771 175.848L247.794 169.597L256.056 158.853Z" fill="white"/>
<path d="M292.102 149.672C292.102 149.672 322.81 160.937 321.201 185.811C319.593 210.685 297.293 222.731 297.293 222.731L263.587 234.517L272.141 195.513L286.764 165.69L292.102 149.672Z" fill="#272323"/>
<path d="M281.135 136.844C281.135 136.844 293.93 147.784 294.003 150.518C294.076 153.253 291.005 165.169 287.569 167.058C287.569 167.058 289.104 168.686 289.25 170.183C289.323 171.681 279.16 186.723 279.16 186.723L264.611 181.058C264.611 181.058 275.578 172.918 278.064 166.862C280.55 160.807 286.326 150.584 285.96 147.588L283.986 145.505L282.377 143.291L280.842 140.686L280.403 138.147L281.135 136.844Z" fill="#181616"/>
<path d="M255.91 144.788L244.504 193.56L244.066 195.578C244.066 195.578 244.066 197.922 243.773 201.699C242.676 216.024 237.778 250.796 216.355 257.438C216.355 257.438 232.075 208.341 233.903 205.215C235.731 202.09 235.292 198.183 235.292 198.183C235.292 198.183 214.527 203.783 207.07 196.685C199.612 189.588 229.223 143.942 235.877 144.202C242.603 144.463 255.91 144.788 255.91 144.788Z" fill="#272323"/>
<path d="M244.577 193.495L244.139 195.513C244.139 195.513 244.358 194.536 244.066 198.378C239.532 198.313 235.365 198.248 235.365 198.248L237.339 193.039L244.577 193.495Z" fill="#181616"/>
<path d="M258.323 150.909C258.323 150.909 253.936 175.848 248.964 178.258C243.993 180.732 244.066 179.951 244.066 179.951C244.066 179.951 245.674 156.835 246.698 156.118C247.721 155.402 249.769 153.644 249.769 153.644C249.769 153.644 247.356 150.974 247.794 150.128C248.233 149.281 254.302 143.095 254.302 143.095L259.858 144.528L258.323 150.909Z" fill="#181616"/>
<path d="M283.035 185.941L285.96 185.746C285.96 185.746 287.422 183.597 288.08 183.532C288.812 183.467 291.955 185.42 291.736 186.853C291.59 188.285 289.616 191.216 289.616 191.216L279.307 192.648L270.972 192.974L271.483 186.658L274.042 182.555L277.406 181.123L279.087 182.685L283.035 185.941Z" fill="#ED7D2B"/>
<path d="M256.568 175.913C256.568 175.913 282.377 169.727 294.661 182.946C294.661 182.946 293.856 186.071 291.955 185.681C290.054 185.355 284.79 182.751 284.79 182.751C284.79 182.751 289.543 189.848 289.25 190.629C288.958 191.411 284.498 191.02 284.278 190.629C284.059 190.239 277.552 183.857 277.552 183.857L275.578 192.322L270.825 195.057L268.34 192.583C268.34 192.583 265.342 189.002 264.172 188.936C263.002 188.871 253.644 192.192 253.644 192.192L248.818 192.843L249.403 187.764L250.719 182.946L252.62 178.518L256.568 175.913Z" fill="#FFB27D"/>
<path d="M229.077 176.89C229.077 176.89 244.066 178.258 244.066 179.104C244.066 179.951 233.976 182.816 233.976 182.816L228.492 182.164L229.077 177.802V176.89Z" fill="#181616"/>
<path d="M208.825 182.099C208.825 182.099 224.544 177.085 233.976 179.039C243.408 180.992 256.641 175.913 256.641 175.913C256.641 175.913 248.891 191.867 253.278 192.062C257.665 192.257 235.438 198.183 235.438 198.183C235.438 198.183 212.115 204.043 206.558 195.774L208.825 182.099Z" fill="#272323"/>
<path d="M206.558 195.774L208.825 182.099C204.965 192.269 205.725 195.476 206.558 195.774Z" fill="#272323"/>
<path d="M326.1 262.647C324.93 265.317 320.324 254.833 315.425 248.387C314.182 246.759 312.939 245.457 311.769 244.61C311.623 244.48 311.477 244.415 311.331 244.35C305.189 240.768 318.057 239.987 318.057 239.987C318.057 239.987 318.203 240.378 318.569 240.964C320.47 245.001 327.416 259.652 326.1 262.647Z" fill="#181616"/>
<path d="M318.569 240.964C318.496 241.159 316.741 246.303 315.425 248.387C314.182 246.759 312.939 245.457 311.769 244.61L312.939 243.112L318.569 240.964Z" fill="#181616"/>
<path d="M320.031 236.926C320.031 236.926 318.861 245.391 309.722 247.996C300.583 250.601 294.88 258.48 292.467 258.87C290.128 259.261 283.547 258.089 281.281 251.512C279.014 245.001 295.904 236.861 295.904 236.861L314.182 233.801H323.614L320.031 236.926Z" fill="#272323"/>
<path d="M216.355 246.759L262.198 236.927L263.002 245.652L248.818 248.061L216.355 246.759Z" fill="#B5C1CE"/>
<path d="M296.5 193.5L289 253L309.5 192L308.5 191L296.5 193.5Z" fill="#B5C1CE" stroke="#B5C1CE"/>
<path d="M281.354 248.973C280.915 252.554 286.179 256.787 290.713 256.201C296.415 255.484 299.779 247.28 297.147 244.284C295.099 241.94 289.25 242.591 285.595 244.48C284.425 245.131 281.646 246.564 281.354 248.973Z" fill="#181616"/>
<path d="M248.818 250.471L257.957 195.513L349.35 180.016L336.628 232.108L248.818 250.471Z" fill="#DBE2E8"/>
<path d="M249.184 248.061C248.526 248.061 216.355 246.824 216.355 246.824L217.233 249.429L248.818 250.536L249.184 248.061Z" fill="#DBE2E8"/>
<path d="M298.316 245.001C298.316 245.001 311.331 239.401 306.871 238.294C302.411 237.187 293.856 240.443 293.856 240.443C293.856 240.443 292.687 234.257 290.347 234.192C288.007 234.127 286.837 235.95 287.934 239.596C289.104 243.243 284.498 243.438 283.255 242.005C282.012 240.508 282.231 238.945 280.403 238.88C278.576 238.815 275.505 239.596 278.429 243.959C278.429 243.959 259.42 247.019 259.785 247.54C260.151 248.061 259.712 249.363 265.634 248.777C271.557 248.257 280.184 249.494 280.769 249.494C281.281 249.494 287.788 251.512 291.297 249.494C294.807 247.54 298.316 245.001 298.316 245.001Z" fill="#FFB27D"/>
<path d="M245.601 128.444C245.601 128.444 254.594 155.532 264.245 155.793C273.896 156.053 284.278 145.049 282.524 125.84C280.696 106.631 269.582 104.417 269.582 104.417L244.139 112.296L245.601 128.444Z" fill="#FFB27D"/>
<path d="M248.891 125.905C248.891 125.905 240.702 126.295 240.849 128.835C240.995 131.374 244.285 137.886 249.33 136.714C254.375 135.542 248.891 125.905 248.891 125.905Z" fill="#FFB27D"/>
<path d="M283.328 121.607C283.328 121.607 286.911 119.523 287.934 120.5C288.958 121.477 288.665 131.83 282.524 132.612C276.382 133.393 283.328 121.607 283.328 121.607Z" fill="#FFB27D"/>
<path d="M248.964 137.105C248.964 137.105 247.502 117.7 246.405 115.942C246.405 115.942 265.854 115.747 271.63 110.798C277.406 105.849 275.505 118.091 276.236 119.393C276.967 120.696 278.649 121.347 279.745 120.826C280.842 120.305 282.743 133.849 282.743 133.849C282.743 133.849 285.156 119.914 284.717 118.351C284.278 116.789 276.967 93.8681 265.561 91.5239C265.561 91.5239 268.705 94.1936 268.705 95.4308C268.705 96.668 257.738 88.3984 253.717 89.5704C253.717 89.5704 257.299 92.4355 256.641 94.975C256.641 94.975 251.377 91.3937 246.405 91.7844C246.405 91.7844 250.427 93.9332 249.33 96.0169C248.233 98.1005 241.287 93.6076 241.287 93.6076C241.287 93.6076 245.309 95.8866 244.212 97.8401C243.115 99.7936 239.24 104.482 239.313 108.128C239.313 111.84 243.554 135.021 248.964 137.105Z" fill="#642C2C"/>
<path d="M275.578 192.322C273.75 191.346 276.236 189.913 276.236 189.913C273.896 189.067 276.821 187.048 276.821 187.048C275.212 186.071 277.552 183.857 277.552 183.857" fill="#ED7D2B"/>
<path d="M278.649 185.03L276.675 182.946C276.675 182.946 278.429 184.183 278.649 185.03Z" fill="#231F20"/>
<path d="M284.79 182.751C284.79 182.751 282.816 181.383 282.524 181.448C282.231 181.578 284.79 182.751 284.79 182.751Z" fill="#231F20"/>
<path d="M276.821 187.048C276.821 187.048 278.649 187.505 279.014 187.374Z" fill="#231F20"/>
<path d="M276.236 189.913C276.236 189.913 278.429 190.501 278.795 190.37L276.236 189.913Z" fill="#231F20"/>
<path d="M244.066 179.104C244.066 179.104 230.905 180.211 229.077 176.89C229.077 176.89 224.105 180.862 244.066 179.104Z" fill="#231F20"/>
</svg>
