<svg width="1277" height="4096" viewBox="0 0 1277 4096" fill="none" xmlns="http://www.w3.org/2000/svg">
<mask id="mask0" mask-type="alpha" maskUnits="userSpaceOnUse" x="0" y="0" width="1277" height="4096">
<rect width="1277" height="4096" fill="white"/>
</mask>
<g mask="url(#mask0)">
<path d="M115.78 489.897C146.78 492.297 212.38 511.658 226.78 569.897M-112.5 309.5C21.6667 228.833 309.18 332.296 316.78 525.896C326.28 767.896 202.5 797.5 97.7803 669.897C2.94372 554.336 -145.22 854.396 -215.72 842.896C-272.12 833.696 -176.167 411.333 -112.5 309.5Z" stroke="#cd94ff" stroke-width="1.2"/>
</g>
<mask id="mask1" mask-type="alpha" maskUnits="userSpaceOnUse" x="0" y="0" width="1277" height="3651">
<rect width="1277" height="3651" fill="white"/>
</mask>
<g mask="url(#mask1)">
<path d="M547 252.282C290.371 181.542 337.717 47.0919 395.883 -14.497C397.937 -16.6717 400.418 -18.4407 403.09 -19.7848C889.732 -264.557 1287.69 -57.3883 1354 60.2822C1420.5 178.282 1424 463.282 1231 581.782C1068.22 681.73 876.5 654.967 800.5 581.782C652.184 438.959 873.5 342.282 547 252.282Z" fill="#cd94ff"/>
</g>
</svg>
