<svg width="646" height="378" viewBox="0 0 646 378" fill="none" xmlns="http://www.w3.org/2000/svg">
<path d="M193.277 123.59L189.252 125.16C188.072 123.135 186.408 121.515 184.476 120.35L186.032 116.755C186.14 116.502 186.032 116.198 185.764 116.097L182.92 114.983C182.652 114.882 182.33 114.983 182.222 115.236L180.72 118.73C178.413 118.122 175.891 118.072 173.476 118.629L171.973 115.236C171.866 114.983 171.544 114.882 171.276 114.983L168.432 116.097C168.163 116.198 168.056 116.502 168.163 116.755L169.666 120.148C167.519 121.363 165.802 123.084 164.622 125.059L160.919 123.641C160.651 123.54 160.329 123.641 160.222 123.894L159.041 126.578C158.934 126.831 159.041 127.135 159.309 127.236L163.119 128.704C162.636 130.831 162.69 133.109 163.388 135.286L159.363 136.856C159.095 136.957 158.987 137.261 159.095 137.514L160.275 140.197C160.383 140.451 160.705 140.552 160.973 140.451L165.158 138.78C166.446 140.602 168.11 142.02 170.042 143.033L168.217 147.235C168.11 147.488 168.217 147.792 168.485 147.893L171.329 149.007C171.598 149.108 171.92 149.007 172.027 148.754L173.905 144.45C175.998 144.855 178.198 144.855 180.344 144.349L182.276 148.754C182.383 149.007 182.705 149.108 182.974 149.007L185.818 147.893C186.086 147.792 186.193 147.488 186.086 147.235L184.154 142.83C186.032 141.767 187.589 140.299 188.769 138.577L193.33 140.349C193.599 140.451 193.921 140.349 194.028 140.096L195.208 137.413C195.316 137.16 195.208 136.856 194.94 136.754L190.486 135.033C191.076 133.008 191.184 130.881 190.701 128.755L194.886 127.084C195.155 126.983 195.262 126.679 195.155 126.426L193.974 123.742C193.867 123.59 193.545 123.489 193.277 123.59ZM178.842 135.944C176.266 136.957 173.369 135.793 172.295 133.413C171.222 130.983 172.456 128.248 174.978 127.236C177.554 126.223 180.452 127.388 181.525 129.767C182.598 132.147 181.418 134.932 178.842 135.944Z" fill="#E0E0E0"/>
<path d="M237.654 114.983L229.605 115.743C228.693 111.591 226.707 107.844 223.917 104.756L228.746 99.1863C229.068 98.7812 229.015 98.2243 228.639 97.9205L224.239 94.4776C223.809 94.1738 223.219 94.2244 222.897 94.5788L218.229 99.9457C214.472 97.6673 210.126 96.3003 205.458 96.0471L204.76 89.3132C204.706 88.8069 204.223 88.4525 203.687 88.5031L197.999 89.0094C197.462 89.06 197.086 89.5157 197.14 90.022L197.838 96.756C193.33 97.8192 189.306 99.9457 186.086 102.882L180.398 98.4774C179.969 98.1736 179.378 98.2243 179.057 98.5787L175.408 102.73C175.086 103.135 175.139 103.692 175.515 103.996L181.418 108.553C179.325 112.097 178.091 116.097 178.091 120.401L170.042 121.16C169.505 121.211 169.129 121.666 169.183 122.173L169.72 127.54C169.773 128.046 170.256 128.4 170.793 128.35L179.217 127.59C180.398 131.438 182.598 134.881 185.388 137.666L179.7 144.147C179.378 144.552 179.432 145.109 179.808 145.412L184.208 148.855C184.637 149.159 185.227 149.108 185.549 148.754L191.345 142.071C194.779 143.893 198.643 145.007 202.774 145.21L203.687 153.969C203.74 154.475 204.223 154.83 204.76 154.779L210.448 154.273C210.985 154.222 211.36 153.767 211.307 153.26L210.394 144.501C214.365 143.59 217.96 141.767 220.965 139.387L228.049 144.855C228.478 145.159 229.068 145.109 229.39 144.754L233.039 140.602C233.361 140.197 233.307 139.64 232.932 139.337L226.063 133.97C228.263 130.729 229.712 126.983 230.088 122.983L238.512 122.223C239.049 122.173 239.425 121.717 239.371 121.211L238.834 115.844C238.673 115.287 238.19 114.932 237.654 114.983ZM204.975 129.514C199.877 129.97 195.369 126.476 194.886 121.666C194.403 116.856 198.106 112.603 203.204 112.148C208.302 111.692 212.809 115.186 213.292 119.996C213.775 124.755 210.072 129.008 204.975 129.514Z" fill="#E0E0E0"/>
<path d="M359.686 199.564L337.094 183.615L291.644 197.184L291 195.26L337.524 181.387L359.417 196.88L470.548 85.0871L499.847 128.326L529.521 22.254L542.561 116.225L561.127 86.2517L578.406 108.884L576.635 110.099L561.342 89.9477L541.219 122.352L528.824 32.7346L500.652 133.339L470.226 88.3781L359.686 199.564Z" fill="#E0E0E0"/>
<path d="M529.199 33.3929C532.637 33.3929 535.424 30.7634 535.424 27.5197C535.424 24.276 532.637 21.6465 529.199 21.6465C525.762 21.6465 522.975 24.276 522.975 27.5197C522.975 30.7634 525.762 33.3929 529.199 33.3929Z" fill="#E0E0E0"/>
<path d="M470.387 92.5806C473.825 92.5806 476.612 89.9511 476.612 86.7074C476.612 83.4638 473.825 80.8342 470.387 80.8342C466.95 80.8342 464.163 83.4638 464.163 86.7074C464.163 89.9511 466.95 92.5806 470.387 92.5806Z" fill="#E0E0E0"/>
<path d="M359.525 203.463C362.962 203.463 365.749 200.833 365.749 197.589C365.749 194.346 362.962 191.716 359.525 191.716C356.087 191.716 353.3 194.346 353.3 197.589C353.3 200.833 356.087 203.463 359.525 203.463Z" fill="#E0E0E0"/>
<path d="M336.236 188.375C339.674 188.375 342.461 185.745 342.461 182.501C342.461 179.258 339.674 176.628 336.236 176.628C332.798 176.628 330.011 179.258 330.011 182.501C330.011 185.745 332.798 188.375 336.236 188.375Z" fill="#E0E0E0"/>
<path d="M561.235 93.9982C564.672 93.9982 567.459 91.3687 567.459 88.125C567.459 84.8813 564.672 82.2518 561.235 82.2518C557.797 82.2518 555.01 84.8813 555.01 88.125C555.01 91.3687 557.797 93.9982 561.235 93.9982Z" fill="#E0E0E0"/>
<path d="M410.289 221.949H244.263C234.068 221.949 225.804 214.152 225.804 204.532V119.978C225.804 110.358 234.068 102.561 244.263 102.561H410.289C420.484 102.561 428.748 110.358 428.748 119.978V204.532C428.748 214.152 420.484 221.949 410.289 221.949Z" fill="#a573d6"/>
<path d="M402.723 217.494H251.883C241.687 217.494 233.424 209.697 233.424 200.077V124.484C233.424 114.865 241.687 107.067 251.883 107.067H402.723C412.918 107.067 421.182 114.865 421.182 124.484V200.127C421.182 209.697 412.918 217.494 402.723 217.494Z" fill="#cd90f0"/>
<path d="M264.6 127.725H259.127V173.293H264.6V127.725Z" fill="#a573d6"/>
<path d="M273.615 145.851H268.142V173.242H273.615V145.851Z" fill="#a573d6"/>
<path d="M282.63 134.56H277.157V173.293H282.63V134.56Z" fill="#a573d6"/>
<path d="M291.592 152.281H286.118V173.242H291.592V152.281Z" fill="#a573d6"/>
<path d="M300.607 144.585H295.133V173.293H300.607V144.585Z" fill="#a573d6"/>
<path d="M309.622 162.762H304.148V173.242H309.622V162.762Z" fill="#a573d6"/>
<path d="M318.583 138.914H313.11V173.242H318.583V138.914Z" fill="#a573d6"/>
<path d="M392.474 160.433C388.127 173.141 373.692 180.128 360.224 176.027C346.755 171.926 339.35 158.306 343.696 145.598C348.043 132.889 362.477 125.902 375.946 130.003L367.468 154.813L391.347 143.269L391.454 143.167C393.976 148.382 394.513 154.509 392.474 160.433Z" fill="#a573d6"/>
<path d="M395.479 138.813L395.371 138.914L371.492 150.458L379.971 125.649C387.107 127.877 392.581 132.788 395.479 138.813Z" fill="#a573d6"/>
<path d="M349.921 186.001H259.127C258.215 186.001 257.41 185.292 257.41 184.381C257.41 183.52 258.161 182.761 259.127 182.761H349.867C350.779 182.761 351.584 183.47 351.584 184.381C351.584 185.292 350.833 186.001 349.921 186.001Z" fill="#a573d6"/>
<path d="M393.708 192.634H258.751C258.161 192.634 257.678 192.178 257.678 191.621C257.678 191.064 258.161 190.609 258.751 190.609H393.708C394.298 190.609 394.781 191.064 394.781 191.621C394.781 192.178 394.298 192.634 393.708 192.634Z" fill="#a573d6"/>
<path d="M393.708 199.874H258.751C258.161 199.874 257.678 199.418 257.678 198.861C257.678 198.305 258.161 197.849 258.751 197.849H393.708C394.298 197.849 394.781 198.305 394.781 198.861C394.781 199.418 394.298 199.874 393.708 199.874Z" fill="#a573d6"/>
<path d="M412.006 203.57C412.006 203.57 412.596 201.494 418.123 202.811C423.65 204.127 436.475 209.798 440.875 208.481C445.276 207.165 430.358 229.19 430.358 229.19L412.006 232.582L398.108 225.038L401.328 211.216L412.006 203.57Z" fill="#474747"/>
<path d="M346.755 210.304C346.755 210.304 347.399 203.773 349.921 203.621C352.443 203.469 372.083 207.924 374.175 209.494C376.268 211.064 373.746 221.494 372.351 222.658C370.956 223.823 360.331 231.569 360.331 231.569L342.247 226.354L341.979 220.177L343.696 213.798L346.755 210.304Z" fill="#474747"/>
<path d="M463.306 299.212L300.392 265.846L301.358 240.43L307.314 236.632L334.627 231.468L385.068 237.696L459.281 250.151H473.501V285.542L470.496 292.225L468.242 294.858L463.306 299.212Z" fill="#474747"/>
<path d="M298.621 216.532L327.759 214.405L330.496 218.557L331.193 225.645L318.154 230.81L311.017 228.987L299.265 229.696L298.407 221.544L298.621 216.532Z" fill="#474747"/>
<path d="M306.295 224.126C306.295 224.126 292.45 228.683 292.289 230.253C292.128 231.822 292.879 236.632 305.758 239.67L310.105 226.304L306.295 224.126Z" fill="#474747"/>
<path d="M300.392 265.846L296.85 265.34L296.582 218.203C296.582 217.241 297.387 216.481 298.407 216.481H299.372C300.338 216.481 301.143 217.241 301.197 218.152L301.358 240.379L300.392 265.846Z" fill="#474747"/>
<path d="M490.511 209.342C490.511 209.342 510.849 210.152 513.264 207.367C515.678 204.583 517.234 213.696 516.912 216.481C516.59 219.266 514.712 228.329 512.351 229.645C509.99 230.962 488.633 231.468 488.633 231.468L488.043 223.063L490.511 209.342Z" fill="#474747"/>
<path d="M478.813 198.051C478.813 198.051 485.038 197.545 486.433 198.608C487.828 199.672 498.292 208.684 497.702 212.279C497.112 215.874 491.585 221.797 491.585 221.797L485.628 221.392L481.389 217.089L479.243 206.456L478.813 198.051Z" fill="#474747"/>
<path d="M346.916 248.379C346.916 248.379 341.764 262.403 341.389 268.074C341.013 273.795 336.023 256.075 336.023 256.075L337.418 246.404L339.296 239.873L345.574 240.835L346.916 248.379Z" fill="#373839"/>
<path d="M414.26 202.507C414.26 202.507 417.211 207.013 412.811 214.355C408.411 221.696 409.967 211.114 409.967 211.114L410.664 206.861L414.26 202.507Z" fill="#373839"/>
<path d="M367.897 210.203C367.897 210.203 375.678 211.165 372.029 215.62L377.288 213.899L377.019 210.203L372.995 208.532L367.897 210.203Z" fill="#373839"/>
<path d="M487.292 201.849C487.292 201.849 499.956 209.342 496.414 226.607C492.872 243.873 493.892 228.228 493.892 228.228L489.277 225.696V215.772L487.292 201.849Z" fill="#373839"/>
<path d="M322.661 240.683C322.661 240.683 321.856 263.669 320.246 265.796C318.637 267.922 315.632 236.025 315.632 236.025L317.51 234.658L322.661 240.683Z" fill="#373839"/>
<path d="M292.289 231.012C292.289 231.012 299.372 234.05 302.216 233.544C302.216 233.544 295.563 233.392 292.289 231.012Z" fill="#231F20"/>
<path d="M298.997 216.532C298.997 216.532 300.499 217.393 300.607 218.81C300.714 220.228 300.821 224.127 300.821 224.127C300.821 224.127 301.09 217.393 298.997 216.532Z" fill="#231F20"/>
<path d="M303.665 239.113C303.665 239.113 298.353 241.898 298.192 242.961C298.031 244.024 297.387 250.809 297.977 251.67C297.977 251.67 298.031 243.366 298.675 242.961C299.319 242.556 302.646 239.721 303.665 239.113Z" fill="#231F20"/>
<path d="M298.997 253.29C298.997 253.29 301.787 255.113 302.109 255.113C302.431 255.113 366.985 266.302 368.004 265.29" fill="#231F20"/>
<path d="M347.774 214.76C347.774 214.76 366.985 222.354 367.575 222.304C367.575 222.304 352.496 218.911 347.774 214.76Z" fill="#231F20"/>
<path d="M411.255 211.216C411.255 211.216 426.172 215.114 427.675 214.659C427.621 214.659 415.172 213.747 411.255 211.216Z" fill="#231F20"/>
<path d="M370.687 265.391C370.687 265.391 462.662 282.656 466.364 280.074Z" fill="#231F20"/>
<path d="M434.973 267.112C434.973 267.112 440.661 260.176 442.11 256.783C443.558 253.391 440.446 251.872 440.446 251.872L436.207 251.417L432.343 261.087L434.973 267.112Z" fill="#373839"/>
<path d="M398.698 263.467C398.698 263.467 405.996 254.809 414.206 253.493C422.416 252.176 401.864 249.24 401.864 249.24L394.727 252.075L398.698 263.467Z" fill="#373839"/>
<path d="M374.551 185.242C374.551 185.242 378.146 179.824 381.473 179.47C384.8 179.116 383.137 188.786 383.137 188.786L379.434 189.647L375.141 186.558L374.551 185.242Z" fill="#FFB27D"/>
<path d="M381.473 179.47C381.473 179.47 378.307 184.179 380.132 189.444C381.956 194.71 383.083 186.457 383.083 186.457L381.473 179.47Z" fill="#ED7D2B"/>
<path d="M404.118 198.051L389.415 202.811C389.415 202.811 388.073 199.469 388.342 198.203C388.449 197.748 387.859 196.988 387.108 196.229C385.766 194.811 383.781 193.343 383.781 193.343L384.102 192.887L385.229 191.318L391.722 188.077C391.722 188.077 400.523 189.039 400.684 191.014C400.845 192.988 401.971 196.634 401.971 196.634L404.118 198.051Z" fill="#FFB27D"/>
<path d="M390.166 191.318C390.166 191.318 388.878 195.014 387.054 196.178C385.712 194.76 383.727 193.292 383.727 193.292C383.727 193.039 383.727 192.887 383.727 192.887L384.049 192.786L388.02 191.672L390.166 191.318Z" fill="#ED7D2B"/>
<path d="M383.029 176.078C382.976 176.128 382.922 176.128 382.922 176.179C382.439 176.584 382.278 177.495 382.01 178.052C381.473 179.47 380.99 180.938 380.722 182.457C380.132 185.444 380.024 188.533 380.454 191.571C380.507 191.824 380.561 192.128 380.615 192.381C380.668 192.583 380.722 192.837 380.829 193.039C380.99 193.242 381.258 193.393 381.527 193.495C383.351 194.153 385.444 193.9 387.215 193.191C388.986 192.482 390.542 191.216 391.883 189.9C393.815 188.027 395.532 185.951 396.659 183.571C396.874 183.065 397.142 182.508 396.927 181.951C396.82 181.596 396.498 181.293 396.23 180.989C394.996 179.875 393.547 179.014 392.044 178.204C389.737 176.989 387.215 175.926 384.585 175.824C384.103 175.774 383.459 175.774 383.029 176.078Z" fill="#FFB27D"/>
<path d="M389.844 188.735C389.844 188.735 392.366 188.128 392.903 187.318C393.439 186.508 392.742 185.191 392.742 185.191H391.722L389.844 188.735Z" fill="#ED7D2B"/>
<path d="M383.137 174.913C383.137 174.913 382.01 177.749 384.102 177.495C386.195 177.242 385.39 180.027 386.088 180.685C386.786 181.343 385.39 184.077 386.088 184.786C386.786 185.495 388.825 184.28 388.825 184.28L392.259 185.039C392.259 185.039 391.776 188.28 393.439 189.596C395.103 190.913 399.932 194.001 400.952 193.191C401.971 192.381 411.469 175.976 400.952 170.66C390.434 165.344 379.434 171.977 380.185 173.04C380.829 174.103 383.137 174.913 383.137 174.913Z" fill="#2C3A64"/>
<path d="M389.469 184.837C389.469 184.837 389.791 183.571 390.595 183.622C391.4 183.672 393.01 184.938 391.776 186.811C390.542 188.685 389.522 189.292 388.878 188.33C388.342 187.318 389.469 184.837 389.469 184.837Z" fill="#FFB27D"/>
<path d="M326.471 223.468C326.471 223.468 313.378 215.874 307.475 220.836C301.572 225.797 306.778 257.29 309.3 262.302C311.822 267.315 310.158 279.973 312.036 280.783C313.914 281.593 317.188 280.783 317.563 280.479C317.885 280.175 320.407 270.251 320.246 267.619C320.085 265.036 321.803 241.847 319.066 237.493C319.066 237.493 320.944 241.088 326.471 241.797C331.998 242.506 333.018 228.683 333.018 228.683L326.471 223.468Z" fill="#FFB27D"/>
<path d="M326.042 223.215C326.042 223.215 315.739 234 324.969 241.544C334.198 249.088 326.042 223.215 326.042 223.215Z" fill="#ED7D2B"/>
<path d="M326.686 222.152C326.686 222.152 320.944 202.608 321.427 202.102C321.803 201.646 337.793 201.292 342.73 201.191C343.589 201.191 344.286 201.697 344.501 202.456L351.477 226.759L351.209 228.683L342.462 227.974L333.93 225.038L326.686 222.152Z" fill="#DBE2E8"/>
<path d="M342.676 286.504C342.676 286.504 343.428 287.517 343.267 288.225C343.106 288.934 340.637 291.516 340.637 291.516H331.998L328.725 289.795L329.154 289.035L329.261 288.58C329.261 288.58 329.637 288.377 330.227 287.972C330.871 287.618 336.023 287.213 336.023 287.213L338.33 286.504H342.676Z" fill="white"/>
<path d="M354.697 246.505L346.218 247.721C346.218 247.721 346.218 247.721 346.164 247.721C345.896 247.619 344.662 247.265 343.803 246.708C342.998 246.202 341.764 243.721 341.389 242.961C341.496 243.265 341.603 243.721 341.711 244.328C342.677 250.606 341.228 270.403 340.906 274.352C340.584 278.757 342.623 286.555 342.623 286.555C341.067 290.808 330.227 288.023 330.227 288.023C330.335 288.023 330.388 287.972 330.496 287.922C335.915 285.137 323.949 237.189 323.949 237.189C320.944 232.531 323.949 226.861 326.686 222.202C329.422 217.544 351.048 226.709 351.048 226.709L354.697 246.505Z" fill="#FFB27D"/>
<path d="M346.54 292.985C346.54 292.985 348.311 295.01 347.935 296.023C347.56 297.035 328.832 302.605 317.778 298.301C317.778 298.301 317.349 296.732 317.778 295.972C318.207 295.213 346.379 292.985 346.379 292.985H346.54Z" fill="white"/>
<path d="M343.052 287.061C343.052 287.061 343.911 288.074 342.569 288.833C341.228 289.592 333.769 290.909 329.261 288.529C329.261 288.529 315.524 295.364 318.046 296.326C320.568 297.288 343.32 299.921 346.486 292.985C346.54 292.985 346.325 288.074 343.052 287.061Z" fill="#231F20"/>
<path d="M318.5 279.695C318.5 279.695 319.342 279.826 318 280.586C316.658 281.345 315 282.369 311 280.586C311 280.586 292.787 287.552 295.309 288.514C297.831 289.476 319.834 292.425 323 285.488C323.054 285.488 321.773 280.707 318.5 279.695Z" fill="#231F20"/>
<path d="M346.164 247.721C345.896 247.619 344.662 247.265 343.803 246.708C342.998 246.202 341.764 243.721 341.389 242.961C341.496 243.265 341.603 243.721 341.711 244.328L341.389 242.961C341.657 243.265 344.662 247.113 346.433 247.366C347.291 247.467 346.862 247.619 346.164 247.721Z" fill="#ED7D2B"/>
<path d="M351.048 226.658C351.048 226.658 353.999 250.809 344.125 246.961C344.125 246.961 356.414 254.758 379.434 252.632C402.508 250.505 396.552 236.278 396.552 236.278L381.366 233.037L354.375 226.759L354.804 227.367C354.857 227.367 351.37 227.519 351.048 226.658Z" fill="#1C468A"/>
<path d="M388.342 198.203C388.342 198.203 392.152 199.368 390.22 201.14C388.288 202.912 387.859 201.444 387.859 201.444L388.02 200.127L388.342 198.203Z" fill="#ED7D2B"/>
<path d="M401.971 196.532C401.971 196.532 409.484 196.381 413.616 201.545C417.157 205.899 405.137 229.139 401.489 235.974C400.845 237.139 399.61 237.898 398.269 237.999L388.825 238.658C388.825 238.658 387.483 231.67 388.825 230.86L376.644 231.367L361.672 227.721L362.531 226.607C362.531 226.607 372.834 215.57 374.229 212.431C375.624 209.291 359.526 211.57 359.15 206.456C358.828 201.342 362.531 200.937 362.531 200.937L368.058 203.216L371.331 201.646C371.331 201.646 385.927 196.887 388.342 198.203C390.756 199.52 389.415 201.241 389.415 201.241C389.415 201.241 392.957 201.039 394.352 199.165C395.747 197.292 401.971 196.532 401.971 196.532Z" fill="white"/>
<path d="M371.063 201.748C371.063 201.748 377.717 189.95 379.488 189.596C381.259 189.292 376.161 185.495 376.161 185.495L374.551 185.191C374.551 185.191 364.248 197.9 362.746 198.153L362.799 200.026L368.219 202.102L371.063 201.748Z" fill="#FFB27D"/>
<path d="M362.746 198.203C362.746 198.203 362.692 198.254 362.638 198.305C362.102 198.811 359.955 200.937 360.17 201.444C360.438 202.001 363.175 204.583 364.194 204.735C365.214 204.887 368.058 203.165 368.058 203.165L371.117 201.748C371.063 201.748 363.765 202.051 362.746 198.203Z" fill="#DBE2E8"/>
<path d="M359.097 225.544C359.097 225.544 351.906 224.683 351.638 225.24C351.37 225.797 351.691 226.202 351.906 226.202C352.121 226.253 358.023 226.506 359.58 226.709C361.082 226.911 359.097 225.544 359.097 225.544Z" fill="#FFB27D"/>
<path d="M385.068 230.658C385.068 230.658 368.326 228.987 366.931 228.228C365.536 227.468 359.097 225.544 359.097 225.544C359.097 225.544 360.331 229.291 362.155 230.303C364.033 231.316 380.078 237.848 381.956 238.05C383.834 238.253 385.873 239.569 385.873 239.569H387L386.678 231.417L385.068 230.658Z" fill="#FFB27D"/>
<path d="M385.068 230.303C385.068 230.303 387.751 238.911 385.498 239.923C385.498 239.923 388.771 242.05 389.63 240.987C390.488 239.923 392.796 231.215 391.4 230.303C390.005 229.392 385.068 230.303 385.068 230.303Z" fill="#DBE2E8"/>
<path d="M357.97 225.898C357.97 225.898 352.872 225.898 352.711 226.455C352.55 227.012 354.214 227.114 354.911 227.265C355.609 227.417 360.063 227.468 360.277 227.265C360.492 227.063 357.97 225.898 357.97 225.898Z" fill="#FFB27D"/>
<path d="M355.555 226.759C355.555 226.759 354.214 227.215 355.126 227.569C356.038 227.924 361.833 230.202 362.37 229.898C362.907 229.595 362.155 228.126 361.78 227.974C361.404 227.873 356.306 226.557 355.555 226.759Z" fill="#FFB27D"/>
<path d="M431.109 221.19L421.665 233.24L432.826 235.974L442.485 225.848L443.076 221.19L435.134 220.532L431.109 221.19Z" fill="#FFB27D"/>
<path d="M436.958 224.025C436.958 224.025 437.763 228.329 436.207 230.303C436.207 230.303 438.353 230.202 438.461 230.202C438.568 230.202 441.197 225.747 441.197 225.747L441.627 223.671L437.387 223.114L436.958 224.025Z" fill="#ED7D2B"/>
<path d="M422.362 253.746C422.362 253.746 403.528 252.227 401.22 257.087C398.913 261.948 390.166 288.681 390.166 288.681L375.302 282.251C375.302 282.251 382.332 241.594 388.395 240.632C394.513 239.62 411.201 237.696 411.201 237.696L426.494 238.151L432.343 241.037L428.694 247.569L422.362 253.746Z" fill="#F99746"/>
<path d="M426.494 240.531C426.494 240.531 421.772 242.911 421.665 243.822C421.558 244.733 420.699 254.404 420.699 254.404L427.675 252.227L430.358 244.328L428.372 239.67L426.494 240.531Z" fill="#ED7D2B"/>
<path d="M431.592 239.569C431.592 239.569 424.348 242.607 423.65 245.392C422.953 248.176 410.986 282.504 411.255 285.896C411.523 289.339 425.904 290.959 425.904 290.959C425.904 290.959 438.139 260.429 437.441 258.252C436.744 256.075 452.144 250.151 452.144 250.151L455.847 240.632L453.432 236.582L443.129 235.974L431.592 239.569Z" fill="#F99746"/>
<path d="M475.54 196.33C475.54 196.33 500.063 200.938 493.677 226.607C493.677 226.607 487.721 216.177 477.848 224.025L478.384 235.62L429.768 241.29C429.768 241.29 438.729 225.139 440.446 224.582C440.446 224.582 430.251 223.266 430.358 221.342C430.465 219.367 441.466 202.001 444.578 200.735C447.69 199.52 460.783 196.735 460.783 196.735L475.54 196.33Z" fill="#F9DDBF"/>
<path d="M475.54 196.33C469.691 200.786 459.388 200.583 459.388 199.824C459.388 199.52 459.227 198.811 458.959 198.102C458.637 197.039 458.261 195.976 458.261 195.976L459.657 193.647L460.301 192.583L467.813 183.571L469.101 184.28L471.247 189.292C471.247 189.292 475.165 192.735 474.735 193.343C474.413 193.9 475.54 196.33 475.54 196.33Z" fill="#FFB27D"/>
<path d="M458.959 198.051C458.637 196.988 458.261 195.925 458.261 195.925L459.657 193.596C461.803 191.368 465.72 187.824 465.989 190.811C466.472 195.014 458.959 198.051 458.959 198.051Z" fill="#ED7D2B"/>
<path d="M461.803 195.52C459.603 196.786 456.866 197.089 454.452 196.33C452.895 195.874 451.5 195.165 451.608 194.254C451.822 192.229 450.105 179.976 456.115 174.356C458.047 172.533 460.301 172.28 462.447 172.736C467.598 173.9 470.442 179.166 468.672 183.875L465.667 191.976C465.667 191.925 465.184 193.596 461.803 195.52Z" fill="#FFB27D"/>
<path d="M455.417 175.014C455.417 175.014 452.305 172.888 453.432 171.318C454.559 169.749 464.164 164.027 476.828 172.432C489.492 180.837 475.486 195.064 475.486 195.064C475.486 195.064 469.155 191.976 469.691 189.191C470.228 186.406 467.867 182.66 465.667 183.318C463.466 183.976 462.554 186.305 461.588 185.343C460.622 184.381 460.461 175.47 462.608 174.508C462.608 174.609 456.974 175.774 455.417 175.014Z" fill="#2C3A64"/>
<path d="M492.121 237.291L453.808 239.67C453.808 239.67 453.325 239.265 452.573 238.708C450.32 236.835 445.759 233.037 447.1 232.835C448.817 232.632 451.125 234.05 452.949 233.949C454.773 233.848 475.594 231.569 477.204 231.114C477.579 231.012 477.794 230.607 477.955 230V229.949C477.955 229.898 477.955 229.848 478.009 229.797C478.062 229.544 478.062 229.291 478.116 229.038C478.277 226.962 477.901 224.126 477.901 224.126C479.189 223.063 480.531 222.354 481.765 221.899C486.97 219.975 491.585 222.506 494.214 224.582C494.375 228.379 492.121 237.291 492.121 237.291Z" fill="#FFB27D"/>
<path d="M481.765 221.797C479.672 223.215 478.277 228.531 478.009 229.696C478.062 229.443 478.062 229.19 478.116 228.936C478.277 226.861 477.901 224.025 477.901 224.025C479.189 222.962 480.477 222.253 481.765 221.797Z" fill="#ED7D2B"/>
<path d="M447.905 233.493L446.402 235.265V237.189L451.608 236.278L450.32 234.405L447.905 233.493Z" fill="#FFB27D"/>
<path d="M411.255 289.542L407 301L417 305C417 305 422.363 293.187 421.88 292.124C421.397 291.111 411.255 289.542 411.255 289.542Z" fill="#FFB27D"/>
<path d="M466.364 189.191C466.364 189.191 468.672 190.356 469.638 185.394H468.028L466.364 189.191Z" fill="#ED7D2B"/>
<path d="M465.881 184.229C466.257 183.622 466.686 183.115 467.276 182.66C467.491 182.508 467.652 182.356 467.92 182.356C468.189 182.305 468.511 182.457 468.725 182.609C469.101 182.812 469.423 183.115 469.691 183.419C469.852 183.622 470.067 183.875 470.067 184.128C470.067 184.33 470.013 184.533 469.906 184.736C469.477 185.748 468.886 186.761 468.189 187.672C467.759 188.229 467.276 188.786 466.579 189.09C466.15 189.292 465.613 189.343 465.237 189.09C464.862 188.837 464.808 188.33 464.862 187.875C464.915 186.609 465.237 185.343 465.881 184.229Z" fill="#FFB27D"/>
<path d="M377.717 285.542L375.5 295.5L385.5 299C385.5 299 388.986 290.301 388.395 288.985C387.805 287.668 377.717 285.542 377.717 285.542Z" fill="#FFB27D"/>
<path d="M446.832 233.038C446.832 233.038 441.466 234.405 441.251 234.708C441.036 235.012 436.422 238.253 436.797 238.961C437.173 239.67 438.031 239.822 438.461 239.67C438.89 239.518 442.11 237.088 445.007 237.088C447.905 237.088 448.12 233.645 448.12 233.645L446.832 233.038Z" fill="#FFB27D"/>
<path d="M445.49 236.531C445.49 236.531 442.485 240.025 443.183 240.48C443.88 240.936 444.846 242.354 445.705 241.898C445.705 241.898 445.329 242.202 445.705 242.607C446.08 243.012 448.442 243.67 448.442 243.67L455.793 239.063L454.827 236.835L449.998 235.974L445.49 236.531Z" fill="#FFB27D"/>
<path d="M419.304 309.136C419.304 309.136 420.001 311.718 419.197 312.478C418.392 313.237 398.913 310.807 390.864 302.453C390.864 302.453 391.186 300.883 391.883 300.377C392.581 299.871 419.089 309.085 419.089 309.085L419.304 309.136Z" fill="white"/>
<path d="M418.747 300.768C418.747 300.768 418.889 302.044 417.435 302.618C415.98 303.192 411.509 303.364 407.52 300.344C407.52 300.344 390.818 305.173 393.138 306.457C394.685 307.343 405.339 310.269 413.347 310.002C417.092 309.877 420.259 309.054 421.644 306.996C421.658 307.045 421.771 302.168 418.747 300.768Z" fill="#231F20"/>
<path d="M393.138 306.457C394.685 307.343 405.339 310.269 413.347 310.002C394.134 312.645 391.869 308.74 393.138 306.457Z" fill="#231F20"/>
<path d="M386.747 294.768C386.747 294.768 386.889 296.044 385.435 296.618C383.98 297.192 379.509 297.364 375.52 294.344C375.52 294.344 358.818 299.172 361.138 300.457C362.685 301.343 373.339 304.269 381.347 304.002C385.092 303.877 388.259 303.053 389.644 300.996C389.658 301.045 389.771 296.168 386.747 294.768Z" fill="#231F20"/>
<path d="M361.138 300.457C362.685 301.343 373.339 304.269 381.347 304.002C362.134 306.645 359.869 302.74 361.138 300.457Z" fill="#231F20"/>
<path d="M447.798 242.961C447.798 242.961 449.515 240.126 449.89 240.075C450.266 240.025 447.798 242.961 447.798 242.961Z" fill="#231F20"/>
<path d="M410.45 284.074C410.45 284.074 428.587 287.567 428.694 288.074C428.802 288.63 426.924 293.187 426.119 293.288C425.314 293.39 409.377 290.251 409.377 289.542C409.377 288.833 410.45 284.074 410.45 284.074Z" fill="#ED7D2B"/>
<path d="M376.59 280.074C376.59 280.074 374.444 280.074 374.283 280.732C374.122 281.39 373.317 283.415 373.531 284.074C373.692 284.732 390.005 291.466 390.595 291.01C391.186 290.554 392.152 286.352 392.152 286.352L376.59 280.074Z" fill="#ED7D2B"/>
<path d="M468.242 294.858L469.208 230.303H478.17L478.813 292.782L468.242 294.858Z" stroke="#231F20" stroke-width="0.5" stroke-miterlimit="10"/>
<path d="M443.075 259.669C443.075 259.669 467.276 263.77 471.891 260.479C476.506 257.188 474.628 249.746 474.628 249.746L463.574 252.328L443.075 259.669Z" fill="#373839"/>
<path d="M468.672 230.303L512.995 224.987L513.21 293.896L462.769 299.212L467.706 294.858L468.672 230.303Z" fill="#474747"/>
<path d="M438.407 256.834C438.407 256.834 437.495 247.72 451.554 239.873C465.613 232.025 471.945 236.379 471.945 236.379L470.55 258.758C470.496 258.758 442.002 263.669 438.407 256.834Z" fill="#474747"/>
<path d="M367.897 203.267L371.063 201.748C371.063 201.748 368.326 203.317 367.897 203.267Z" fill="#231F20"/>
<path d="M393.976 229.038C393.976 229.038 397.357 211.469 398.054 211.216C398.752 210.962 393.976 229.038 393.976 229.038Z" fill="#231F20"/>
<path d="M354.911 227.062C354.911 227.062 356.575 226.76 357.97 227.062Z" fill="#231F20"/>
<path d="M352.979 226.304C352.979 226.304 355.931 225.696 356.306 225.949Z" fill="#231F20"/>
<path d="M433.631 240.176L443.666 239.468L444.041 240.683L434.49 241.645L433.631 240.176Z" fill="#231F20"/>
<path d="M435.509 241.138L423.758 213.95C423.543 213.393 422.953 213.038 422.309 213.038L387.215 213.95C386.142 214 385.444 215.013 385.873 215.924L396.23 239.468L435.509 241.138Z" fill="#231F20"/>
<path d="M434.49 241.645L396.23 239.468L397.625 237.847L435.08 240.075L434.49 241.645Z" fill="#231F20"/>
<path d="M445.759 241.898C445.759 241.898 447.261 238.86 447.744 238.809C448.227 238.759 445.759 241.898 445.759 241.898Z" fill="#231F20"/>
<path d="M443.558 239.164C443.558 239.164 445.651 236.025 445.973 235.974Z" fill="#231F20"/>
<path d="M440.446 224.582C440.446 224.582 445.276 215.215 445.759 215.367C446.241 215.519 440.446 224.582 440.446 224.582Z" fill="#231F20"/>
<path d="M477.901 224.025C477.901 224.025 477.365 216.127 476.774 215.418C476.184 214.709 477.901 224.329 477.901 224.329" fill="#231F20"/>
<path d="M368.756 253.644C368.756 253.644 367.575 262.758 368.219 263.517Z" fill="#231F20"/>
<path d="M496.414 208.785C496.414 208.785 500.117 219.165 498.292 221.089C498.292 221.089 501.244 218.253 496.414 208.785Z" fill="#231F20"/>
<path d="M502.478 212.228C502.478 212.228 504.517 210.304 506.234 209.899Z" fill="#231F20"/>
<path d="M469.208 230.303C469.208 230.303 507.79 224.785 509.4 225.443Z" fill="#231F20"/>
<path d="M438.407 256.834C438.407 256.834 455.847 247.67 457.671 246.202C459.496 244.733 444.041 256.632 438.407 256.834Z" fill="#231F20"/>
<path d="M468.618 235.367L468.242 259.062L469.208 235.367H468.618Z" fill="#231F20"/>
<path d="M471.355 230.962C471.355 230.962 476.291 231.924 475.969 234C475.647 236.075 474.467 265.998 474.467 265.998C474.467 265.998 475.486 234 475.004 233.493C474.521 232.987 471.355 230.962 471.355 230.962Z" fill="#231F20"/>
<path d="M374.175 212.38C374.175 212.38 375.678 209.747 376.375 209.798Z" fill="#231F20"/>
<path d="M457.618 246.202C457.618 246.202 449.032 256.328 441.627 255.973L457.618 246.202Z" fill="#373839"/>
<path d="M246.678 272.327C246.678 272.327 247.375 271.871 247.858 272.074C248.395 272.277 247.966 272.682 247.966 272.682L247.161 273.138L246.678 272.327Z" fill="#141112"/>
<path d="M232.243 153.142C232.941 154.104 234.872 156.129 230.902 160.281C226.931 164.432 218.13 154.661 218.13 154.661L218.452 152.939C218.452 152.939 222.262 151.825 222.852 145.75C223.496 139.674 223.335 138.56 223.335 138.56L229.453 137.699L232.511 146.408L232.565 146.61L233.746 149.749C233.746 149.699 231.599 152.18 232.243 153.142Z" fill="#FFB27D"/>
<path d="M232.243 153.142C230.258 153.091 227.36 144.585 227.306 144.433L231.706 145.446L232.458 146.408L232.511 146.61L233.692 149.75C233.746 149.699 231.599 152.18 232.243 153.142Z" fill="#E2915A"/>
<path d="M227.897 145.598C227.897 145.598 232.458 153.294 237.18 150.053C241.902 146.813 240.185 134.661 237.877 133.142C235.57 131.623 228.755 129.699 227.521 131.067C226.287 132.484 226.394 144.231 227.897 145.598Z" fill="#FFB27D"/>
<path d="M232.243 153.142L229.936 159.622L231.331 161.293L232.672 159.369C232.619 159.369 232.887 153.294 232.243 153.142Z" fill="#E2915A"/>
<path d="M237.985 133.244C237.985 133.244 243.19 130.611 235.892 126.662C235.892 126.662 236.482 127.117 236.429 127.725C236.375 128.332 232.458 126.003 231.277 126.003C231.277 126.003 231.867 126.408 232.189 127.016C232.511 127.624 222.96 127.37 221.135 130.003C219.257 132.636 218.238 138.307 219.847 140.028C221.457 141.75 223.55 144.18 222.691 146.205C222.691 146.205 224.892 142.61 223.926 141.395C222.96 140.18 227.521 137.75 228.487 138.864C229.453 140.028 230.15 140.535 231.17 138.104C232.136 135.725 234.228 135.725 233.155 134.914C232.082 134.155 231.706 131.978 237.985 133.244Z" fill="#233862"/>
<path d="M224.945 139.573C224.945 139.573 223.013 143.218 227.897 142.813L226.233 140.028L224.945 139.573Z" fill="#E2915A"/>
<path d="M227.628 139.117C227.628 139.117 226.233 137.75 225.696 138.256C225.16 138.762 223.067 142.104 227.897 142.813L227.628 139.117Z" fill="#FFB27D"/>
<path d="M247.697 268.732C247.697 268.732 247.375 273.796 247.697 274.352C248.019 274.909 250.273 275.973 250.273 275.973L253.654 276.428C253.654 276.428 252.849 267.872 252.956 267.416C253.063 266.96 248.61 267.416 248.61 267.416L247.697 268.732Z" fill="#FFB27D"/>
<path d="M233.155 269.391L233.853 274.808H228.272L228.97 268.986L233.155 269.391Z" fill="#FFB27D"/>
<path d="M214.642 206.912C214.642 206.912 221.189 232.835 220.599 237.442C220.062 242.05 224.516 270.403 226.931 270.96C229.345 271.517 233.37 270.606 233.585 269.796C233.853 268.986 233.585 247.214 232.082 245.442C230.58 243.67 236.107 215.924 233.638 209.241C231.277 202.507 214.642 206.912 214.642 206.912Z" fill="#F99746"/>
<path d="M231.277 217.899C231.277 217.899 240.399 240.936 241.473 242.354C242.6 243.771 245.98 268.58 247.053 269.036C248.127 269.492 252.151 269.846 253.654 267.72C255.156 265.593 253.171 234.556 252.044 233.291C250.917 231.974 251.99 211.519 246.57 201.849C241.151 192.178 230.687 208.633 230.687 208.633L231.277 217.899Z" fill="#F99746"/>
<path d="M262.078 182.862C261.649 182.963 254.727 185.748 249.2 186.103C246.892 186.254 244.8 186.001 243.565 184.887C243.565 184.887 244.478 200.887 246.731 201.343C248.985 201.798 235.677 218.203 214.589 206.912C214.589 206.912 214.106 192.178 212.12 184.989C211.691 183.368 211.154 182.153 210.564 181.546C210.564 181.546 209.276 183.368 209.545 184.229C209.867 185.09 202.139 187.47 205.413 192.026C205.413 192.026 190.227 194.204 206.432 160.686C206.432 160.686 210.296 153.192 218.399 152.939C218.399 152.939 223.282 156.737 226.662 156.737C230.043 156.737 230.902 160.281 230.902 160.281C230.902 160.281 233.263 154.408 232.243 153.142C232.243 153.142 238.414 156.737 240.936 157.142C243.458 157.597 248.931 175.976 250.541 177.394C250.81 177.647 251.346 177.85 252.044 178.002C255.317 178.812 262.132 178.812 262.132 178.812C262.132 178.812 262.722 182.71 262.078 182.862Z" fill="#373839"/>
<path d="M214.159 173.749C214.159 173.749 213.837 184.077 212.174 184.938C211.745 183.318 211.208 182.103 210.618 181.495L214.159 173.749Z" fill="#EBF3FF"/>
<path d="M231.331 193.343C229.345 193.242 227.145 189.9 226.662 187.773C226.34 186.406 226.823 185.9 227.199 185.698L227.467 186.204C227.145 186.356 227.038 186.913 227.199 187.672C227.682 189.799 229.775 192.735 231.331 192.786V193.343Z" fill="#a573d6"/>
<path d="M208.847 184.28C208.847 184.28 199.027 188.381 205.466 192.026C205.466 192.026 219.686 193.393 221.565 192.735C221.565 192.735 228.594 195.216 229.077 191.976C229.077 191.976 228.916 190.507 227.95 190.507C227.95 190.507 230.58 189.292 228.487 188.026C228.487 188.026 228.916 186.659 228.165 186.254C228.165 186.254 231.009 185.495 229.721 184.28C229.721 184.28 225.374 184.128 224.516 184.584C223.604 185.09 221.296 186.406 220.545 187.166C219.794 187.925 212.657 186.103 208.847 184.28Z" fill="#FFB27D"/>
<path d="M227.789 186.356H227.199C227.199 186.305 227.306 185.546 228.058 185.141C228.701 184.837 229.56 184.938 230.58 185.495L230.311 186.001C229.453 185.546 228.755 185.444 228.326 185.647C227.843 185.849 227.789 186.356 227.789 186.356Z" fill="#a573d6"/>
<path d="M230.204 183.875C230.204 183.875 229.614 193.444 231.116 194.76C232.619 196.077 237.555 195.52 237.555 195.52C237.555 195.52 241.795 186.153 240.829 184.887C239.863 183.622 230.204 183.875 230.204 183.875Z" fill="#a573d6"/>
<path d="M268.518 178.407H269.591C269.591 178.407 272.113 175.318 272.649 175.116C273.24 174.913 273.884 175.014 273.991 175.116C274.098 175.217 270.986 179.774 270.771 179.824C270.557 179.875 268.41 180.483 268.41 180.483L267.659 180.179L268.518 178.407Z" fill="#ED7D2B"/>
<path d="M261.649 179.571C261.649 179.571 263.098 177.141 264.386 176.685C265.674 176.229 268.679 174.812 269.483 174.761C270.288 174.711 269.108 176.736 267.659 176.888C266.21 177.04 261.649 179.571 261.649 179.571Z" fill="#FFB27D"/>
<path d="M276.567 172.28L277.747 171.571L278.016 172.179L276.674 172.686L276.567 172.28Z" fill="#231F20"/>
<path d="M277.586 171.977L278.713 171.318" stroke="#231F20" stroke-width="0.5" stroke-miterlimit="10"/>
<path d="M268.357 177.85C268.357 177.85 276.567 174.002 277.211 172.736L276.62 171.926L266.371 177.445L268.357 177.85Z" fill="white"/>
<path d="M262.078 183.066C262.078 183.066 262.293 182.863 262.293 182.711C262.293 182.558 261.81 182.711 261.81 182.711L261.595 183.117L262.078 183.066Z" fill="#E2E2E2"/>
<path d="M269.376 175.318C269.376 175.318 269.43 174.457 269.913 174.457C270.396 174.457 270.986 175.622 271.04 175.926C271.147 176.229 271.576 178.052 271.469 178.407C271.362 178.761 270.342 180.685 270.288 180.989C270.235 181.293 269.537 182.052 269.162 181.9C269.162 181.9 268.518 182.66 267.552 182.254C267.552 182.254 265.352 182.71 265.083 182.406C264.761 182.103 261.22 183.216 261.22 183.216L261.488 179.52C261.488 179.52 266.639 177.039 267.069 177.09C267.498 177.141 268.196 177.596 268.357 177.9C268.464 178.204 269.001 179.875 269.001 179.875C269.001 179.875 270.181 177.495 269.376 175.318Z" fill="#FFB27D"/>
<path d="M227.092 275.061C227.092 275.061 226.609 271.011 227.414 270.96C227.897 270.91 228.97 271.061 229.775 271.112C230.311 271.163 230.687 271.568 230.687 272.074C230.687 273.137 230.741 274.859 230.687 275.011C230.58 275.264 227.092 275.061 227.092 275.061Z" fill="#231F20"/>
<path d="M251.024 273.644C251.024 273.644 250.863 271.973 251.346 271.821C251.883 271.669 254.995 272.277 254.995 272.277C254.995 272.277 254.834 276.074 254.673 276.276C254.512 276.479 252.849 276.479 252.151 276.53C251.454 276.58 251.024 273.644 251.024 273.644Z" fill="#231F20"/>
<path d="M262.078 182.862C261.649 182.963 254.727 185.748 249.2 186.102C244.263 183.47 251.99 178.001 251.99 178.001C255.263 178.812 262.078 178.812 262.078 178.812C262.078 178.812 262.722 182.71 262.078 182.862Z" fill="#FFB27D"/>
<path d="M228.165 186.254C228.165 186.254 226.555 186.305 226.394 186.254C226.394 186.254 227.682 186.506 228.165 186.254Z" fill="#231F20"/>
<path d="M228.487 188.026C228.487 188.026 226.662 188.026 226.448 187.976C226.287 187.875 227.736 188.379 228.487 188.026Z" fill="#231F20"/>
<path d="M227.95 190.507C227.95 190.507 226.555 190.913 226.555 191.014C226.555 191.116 227.95 190.507 227.95 190.507Z" fill="#231F20"/>
<path d="M243.619 184.533C243.619 184.533 242.224 176.381 242.492 175.774C242.707 175.166 243.458 184.229 243.619 184.533Z" fill="#231F20"/>
<path d="M210.564 181.546C210.564 181.546 214.213 174.913 214.106 173.799C213.998 172.635 210.564 181.546 210.564 181.546Z" fill="#231F20"/>
<path d="M233.799 224.228C233.799 224.228 235.194 219.57 235.087 219.114C234.98 218.658 233.638 223.823 233.799 224.228Z" fill="#231F20"/>
<path d="M261.703 178.812C261.703 178.812 260.093 181.343 262.132 183.065C262.132 183.065 261.595 183.368 261.22 183.52C261.005 183.571 260.79 183.52 260.683 183.318C260.308 182.609 259.234 180.331 260.469 178.761L261.703 178.812Z" fill="#474747"/>
<path d="M221.135 281.744C221.135 281.744 219.364 283.466 219.955 284.276C220.491 285.086 228.379 284.175 230.15 283.213C231.975 282.251 236.214 282.15 236.375 281.744C236.536 281.339 237.072 279.77 236.375 279.213C235.677 278.656 221.135 281.744 221.135 281.744Z" fill="white"/>
<path d="M245.873 278.808C245.873 278.808 245.712 280.378 246.087 280.58C246.409 280.833 248.61 281.694 249.092 281.694C249.575 281.694 250.756 284.529 253.278 284.58C255.854 284.63 258 284.175 258.161 283.972C258.322 283.719 258.268 282.555 258.268 282.555L248.341 278.757H245.873V278.808Z" fill="white"/>
<path d="M230.741 273.036C230.741 273.036 232.565 273.745 233.263 273.542C233.96 273.34 235.624 273.947 235.677 274.403C235.731 274.859 236.375 279.162 236.375 279.162C236.375 279.162 227.736 284.782 220.974 282.707C220.974 282.707 219.955 281.896 223.389 279.922C226.823 277.998 227.038 273.542 227.038 273.542L230.741 273.036Z" fill="#231F20"/>
<path d="M255.317 274.555C255.317 274.555 258.751 282.453 258.268 282.656C257.839 282.808 254.673 284.428 253.01 283.263C251.346 282.099 249.468 280.226 248.61 280.124C247.751 280.074 245.766 279.365 245.873 278.605C245.98 277.846 245.605 273.087 246.356 272.479C247.107 271.872 250.112 274.15 250.702 273.998C251.346 273.846 254.727 273.289 254.727 273.289L255.317 274.555Z" fill="#231F20"/>
<path d="M143.327 192.077C143.327 192.077 149.445 203.368 149.498 206.507C149.552 209.646 154.221 215.215 154.221 215.215L150.947 216.836C150.947 216.836 146.064 215.063 144.025 211.722C141.986 208.38 139.839 196.583 139.839 196.583L143.327 192.077Z" fill="#ED2B2B"/>
<path d="M133.669 188.786C133.669 188.786 141.932 190.356 143.005 191.621C144.025 192.887 146.332 199.824 144.937 205.19C143.542 210.557 149.498 217.139 149.498 217.139L137.693 229.595L133.025 231.164L130.771 235.974L126.907 236.278C126.907 236.278 116.229 228.633 116.282 210.557C116.336 192.431 104.853 194.912 104.853 194.912C104.853 194.912 110.594 188.938 115.209 187.621C119.824 186.305 131.093 188.178 131.093 188.178L133.669 188.786Z" fill="#F94646"/>
<path d="M132.22 191.621C132.22 191.621 132.703 193.849 132.917 193.495C133.132 193.14 133.347 185.444 129.966 184.837C126.585 184.229 127.605 188.938 127.605 188.938L132.22 191.621Z" fill="#ED2B2B"/>
<path d="M132.917 193.495L130.878 194.912L127.605 192.735L126.585 190.507L116.443 185.697C116.443 185.697 116.873 183.723 116.336 183.115C116.121 182.862 116.282 182.204 116.497 181.495C116.658 181.039 116.819 180.584 116.98 180.229C117.248 179.622 117.463 179.166 117.463 179.166L121.112 178.204L127.819 179.521L130.234 180.736L130.449 181.343L131.254 183.773C131.254 183.773 130.395 184.584 129.912 185.596C129.912 185.596 129.912 185.647 129.859 185.697C129.644 186.103 129.537 186.508 129.537 186.963C129.483 188.482 129.107 189.039 129.912 189.394C130.717 189.748 131.844 190.001 132.327 190.406C132.595 190.659 132.756 191.672 132.81 192.482C132.917 192.988 132.917 193.495 132.917 193.495Z" fill="#FFB27D"/>
<path d="M133.025 192.938C133.025 193.09 133.025 193.293 132.971 193.445C132.971 193.344 132.971 193.141 133.025 192.938Z" fill="#E2915A"/>
<path d="M131.307 183.773C131.307 183.773 130.395 184.634 129.912 185.697C128.034 186.254 121.81 182.153 121.541 182.406C121.327 182.609 117.195 181.9 117.195 181.9L116.551 181.546C116.712 181.09 116.873 180.634 117.034 180.28H123.902L130.503 181.343L131.307 183.773Z" fill="#E2915A"/>
<path d="M122.292 181.85C122.292 181.85 129.268 186.811 135.225 182.305C141.181 177.799 127.498 165.749 125.995 165.648C124.493 165.546 114.136 170.154 114.136 173.09C114.136 175.976 122.292 181.85 122.292 181.85Z" fill="#FFB27D"/>
<path d="M118.697 176.635C118.697 176.635 120.468 177.445 121.273 177.343C122.024 177.242 123.473 175.824 122.239 174.154C121.005 172.483 127.39 169.141 127.068 167.521C126.746 165.901 128.678 164.736 126.854 163.926C125.029 163.116 110.594 158.104 107.643 170.052C107.643 170.052 96.1061 176.078 115.961 183.672C115.961 183.672 117.087 183.824 117.141 182.71C117.195 181.596 117.141 178.812 117.141 178.812L118.697 176.635Z" fill="#233862"/>
<path d="M116.497 184.533C116.497 184.533 128.839 190.356 129.429 190.963C130.073 191.571 131.146 194.406 130.932 194.811C130.717 195.216 126.049 193.191 126.049 193.191C126.049 193.191 115.424 189.444 115.317 187.976C115.263 186.406 116.497 184.533 116.497 184.533Z" fill="#ED2B2B"/>
<path d="M118.536 176.634C118.536 176.634 115.585 176.685 115.585 179.065C115.639 181.495 122.292 182.356 123.258 180.482C124.278 178.71 118.536 176.634 118.536 176.634Z" fill="#FFB27D"/>
<path d="M104.853 194.912C104.853 194.912 99.4331 201.089 100.506 203.621C101.526 206.102 103.511 230.202 106.248 231.063C108.985 231.923 120.092 230.506 120.092 230.506C120.092 230.506 126.961 223.417 125.834 222.962C124.761 222.506 117.731 221.747 117.731 221.747L117.356 203.165C117.409 203.165 114.404 192.836 104.853 194.912Z" fill="#ED2B2B"/>
<path d="M125.995 221.544C125.995 221.544 118.644 230.253 118.965 231.316C119.287 232.379 121.327 231.721 122.453 230.962C123.634 230.253 127.658 222.658 127.766 222.152C127.873 221.747 125.995 221.544 125.995 221.544Z" fill="#ED2B2B"/>
<path d="M127.176 222.911C127.176 222.911 135.386 223.468 138.23 222.253C141.02 221.038 144.884 216.734 145.635 216.481C146.386 216.279 151.645 214.912 152.772 215.266C153.845 215.671 150.411 219.519 150.411 219.519L138.337 227.873C138.337 227.873 125.083 231.215 122.99 230.455C120.897 229.696 127.176 222.911 127.176 222.911Z" fill="#FFB27D"/>
<path d="M149.176 217.949C149.176 217.949 132.273 226.304 133.293 228.582C134.312 230.86 149.176 217.949 149.176 217.949Z" fill="#E2915A"/>
<path d="M152.879 216.127C152.879 216.127 149.176 217.089 149.176 217.191C149.176 217.292 152.879 216.127 152.879 216.127Z" fill="#231F20"/>
<path d="M153.147 215.469L134.259 227.215V227.974L153.738 216.076L153.147 215.469Z" fill="#B5C1CE"/>
<path d="M134.259 227.974L138.766 229.746L159.587 216.582L153.738 216.076L134.259 227.974Z" fill="#B5C1CE"/>
<path d="M153.147 215.468L158.782 191.469C158.889 191.115 159.211 190.862 159.64 190.862L182.178 192.026C182.661 192.077 183.036 192.482 182.929 192.938L178.582 212.734L161.089 218.962L156.045 219.823L152.45 218.203L153.147 215.468Z" fill="#DBE2E8"/>
<path d="M166.187 210L141.718 225.392C141.718 225.392 163.879 217.038 166.187 210Z" fill="#EBF3FF"/>
<path d="M196.076 223.62C196.076 223.62 200.208 225.088 200.476 225.645C200.744 226.202 201.442 231.468 200.476 231.721C199.51 231.974 196.237 231.721 196.237 231.721C196.237 231.721 191.944 226.658 191.944 226.455C191.944 226.304 196.076 223.62 196.076 223.62Z" fill="#FFB27D"/>
<path d="M184.539 269.239C184.539 269.239 184.002 275.618 183.627 276.732C183.197 277.795 183.09 278.859 184.539 279.517C185.988 280.175 188.617 280.934 191.622 279.061C194.627 277.238 194.895 277.745 194.895 277.745C194.895 277.745 193.983 275.517 193.822 273.795C193.661 272.074 193.768 268.125 193.768 268.125L186.256 266.758L184.539 269.239Z" fill="#FFB27D"/>
<path d="M198.383 234.607C197.954 241.341 195.807 266.1 196.183 267.973C196.559 269.846 184.539 269.289 184.539 269.289C184.539 269.289 182.822 244.024 184.539 241.594C184.539 241.594 167.528 244.024 158.352 241.797C157.065 241.493 155.991 241.088 155.079 240.581C148.801 237.088 160.391 231.164 163.987 229.443C164.631 229.139 165.006 228.987 165.006 228.987L167.153 229.696C167.153 229.696 183.787 229.24 187.168 227.924C190.549 226.607 198.812 227.822 198.383 234.607Z" fill="#5B5B5B"/>
<path d="M183.627 228.683C183.627 228.683 190.441 232.734 194.466 228.329C198.491 223.974 183.627 228.683 183.627 228.683Z" fill="#373839"/>
<path d="M167.153 229.747C167.153 229.747 160.07 240.632 158.406 241.797C157.118 241.493 156.045 241.088 155.133 240.582C148.854 237.088 160.445 231.164 164.04 229.443L167.153 229.747Z" fill="#373839"/>
<path d="M152.986 243.417C152.986 243.417 168.226 229.848 170.211 224.633C170.211 224.633 189.744 231.772 193.607 229.038C197.471 226.304 196.183 222.506 195.217 222.456C194.251 222.405 188.563 223.519 180.997 215.215C173.485 206.912 168.977 208.532 167.045 209.443C165.114 210.304 145.474 225.747 139.357 225.544C133.239 225.291 128.088 236.177 128.088 236.177C128.088 236.177 126.746 251.366 152.986 243.417Z" fill="#5B5B5B"/>
<path d="M199.295 225.088C199.295 225.088 199.188 226.658 199.188 227.012C199.188 227.367 198.276 229.696 198.437 229.949C198.598 230.202 199.671 231.164 200.1 230.708C200.53 230.253 202.193 226.709 201.066 226C199.939 225.291 199.295 225.088 199.295 225.088Z" fill="#231F20"/>
<path d="M198.705 234.151C198.705 234.151 213.73 239.67 218.989 232.632C224.248 225.595 199.456 223.114 200.369 225.038C200.959 226.253 200.369 232.025 197.847 231.316L198.705 234.151Z" fill="#231F20"/>
<path d="M183.358 276.985C183.358 276.985 182.178 276.935 182.124 277.492C182.07 278.048 180.675 284.479 180.997 285.086C181.265 285.694 207.935 286.2 213.301 283.365C218.667 280.529 192.481 276.074 192.481 276.074L183.358 276.985Z" fill="#231F20"/>
<path d="M193.983 274.707C193.983 274.707 191.461 276.833 195.432 277.998C195.432 277.998 196.451 276.985 195.861 276.327C195.217 275.719 193.983 274.707 193.983 274.707Z" fill="white"/>
<path d="M104.209 226.152C104.209 226.152 106.57 251.568 108.609 251.872C110.702 252.176 131.2 252.379 131.576 250.91C131.898 249.442 130.878 237.949 128.839 236.278C126.8 234.607 115.209 229.139 113.224 228.936C111.185 228.784 104.209 226.152 104.209 226.152Z" fill="#2A2D32"/>
<path d="M148.425 254.859H135.386C134.527 254.859 133.829 254.201 133.829 253.391V250.556H149.981V253.391C149.928 254.201 149.284 254.859 148.425 254.859Z" fill="#313336"/>
<path d="M130.503 245.037C130.503 245.037 137.21 241.898 140.376 241.949C143.542 241.999 155.133 240.885 158.513 241.189C161.894 241.493 176.973 241.594 177.187 241.949C177.402 242.303 177.724 243.467 176.865 243.923C176.007 244.379 145.688 256.125 130.503 250.606C130.503 250.606 129.268 246.455 130.503 245.037Z" fill="#2A2D32"/>
<path d="M141.986 275.821H140.805C140.269 275.821 139.84 275.416 139.84 274.909V254.91H142.952V274.909C142.952 275.416 142.523 275.821 141.986 275.821Z" fill="#313336"/>
<path d="M142.201 274.302L157.44 281.795L157.762 283.466C157.762 283.466 159.64 284.428 160.016 283.162C160.338 281.846 160.016 279.568 160.016 279.568L142.469 270.91L142.201 274.302Z" fill="#313336"/>
<path d="M142.523 269.34L172.787 272.58L173.109 276.125C173.109 276.125 170.748 276.985 170.48 276.125C170.211 275.264 170.319 274.758 170.319 274.758L145.474 274.302L141.074 272.935L142.523 269.34Z" fill="#313336"/>
<path d="M140.054 270.353L116.765 282.251V286.251C116.765 286.251 119.073 287.162 119.341 286.251C119.609 285.34 119.502 283.77 119.502 283.77L140.644 274.403L140.054 270.353Z" fill="#313336"/>
<path d="M139.839 269.34L110.433 275.922V279.77C110.433 279.77 112.795 280.074 112.902 279.517C113.009 278.96 112.956 277.897 112.956 277.897L130.503 275.821L141.396 270.505L139.839 269.34Z" fill="#313336"/>
<path d="M159.694 288.782C160.939 288.782 161.948 287.83 161.948 286.656C161.948 285.481 160.939 284.529 159.694 284.529C158.449 284.529 157.44 285.481 157.44 286.656C157.44 287.83 158.449 288.782 159.694 288.782Z" fill="#231F20"/>
<path d="M172.626 281.238C173.871 281.238 174.88 280.286 174.88 279.112C174.88 277.937 173.871 276.985 172.626 276.985C171.381 276.985 170.372 277.937 170.372 279.112C170.372 280.286 171.381 281.238 172.626 281.238Z" fill="#231F20"/>
<path d="M119.019 291.77C120.264 291.77 121.273 290.818 121.273 289.643C121.273 288.469 120.264 287.517 119.019 287.517C117.774 287.517 116.765 288.469 116.765 289.643C116.765 290.818 117.774 291.77 119.019 291.77Z" fill="#231F20"/>
<path d="M111.668 284.479C112.912 284.479 113.921 283.527 113.921 282.352C113.921 281.178 112.912 280.226 111.668 280.226C110.423 280.226 109.414 281.178 109.414 282.352C109.414 283.527 110.423 284.479 111.668 284.479Z" fill="#231F20"/>
<path d="M170.211 224.633C170.211 224.633 168.548 224.127 168.548 223.772C168.494 223.468 169.943 224.583 170.211 224.633Z" fill="#231F20"/>
<path d="M184.539 241.594C184.539 241.594 185.773 239.923 186.363 239.923C186.953 239.923 185.236 240.987 184.539 241.594Z" fill="#231F20"/>
<path d="M152.611 215.266C152.611 215.266 148.693 216.077 148.693 216.127C148.693 216.178 152.611 215.266 152.611 215.266Z" fill="#231F20"/>
<path d="M131.2 244.733C131.2 244.733 132.005 250.606 131.522 250.91Z" fill="#231F20"/>
<path d="M119.18 230.607L122.239 226.202C122.239 226.152 119.502 230.506 119.18 230.607Z" fill="#231F20"/>
<path d="M298.766 303.344C298.766 303.344 289.45 298.863 299.847 293.714C299.847 293.714 298.974 299.011 299.847 299.492C300.721 299.974 300.97 293.27 300.97 293.159C300.97 293.047 308.664 290.418 309.33 290.64C310.037 290.899 305.587 296.677 306.834 296.122C308.082 295.566 310.952 289.973 310.952 289.973C310.952 289.973 316.982 289.269 318.23 290.973C319.478 292.677 320.476 296.011 318.23 297.455C315.984 298.9 310.827 297.492 311.243 298.381C311.659 299.27 316.774 299.937 317.564 299.529C317.564 299.529 314.404 305.863 310.369 304.345C306.626 302.937 304.048 302.826 303.881 303.122C303.715 303.419 310.536 304.307 310.91 306.456C311.284 308.604 299.515 307.382 299.639 305.419C299.764 303.567 298.766 303.344 298.766 303.344Z" fill="#388161"/>
<path d="M298.724 317.012C297.976 316.123 295.605 312.938 296.478 308.789C297.061 306.011 298.891 304.159 299.93 303.27L300.554 303.863C299.598 304.641 297.934 306.382 297.393 308.937C296.562 312.752 298.766 315.716 299.473 316.53L298.724 317.012Z" fill="#388161"/>
<path d="M293.027 302.9C293.027 302.9 299.764 299.677 292.236 295.936C292.236 295.936 292.86 299.789 292.236 300.122C291.612 300.455 291.405 295.603 291.446 295.529C291.446 295.455 285.873 293.529 285.374 293.714C284.875 293.899 288.119 297.344 287.204 297.714C286.289 298.048 283.295 293.492 283.295 293.492C283.295 293.492 279.884 292.751 278.969 294.01C278.054 295.27 277.347 297.677 278.969 298.714C280.591 299.752 284.334 298.751 284.002 299.381C283.669 300.048 279.967 300.529 279.427 300.233C279.427 300.233 281.922 305.196 284.625 303.715C287.329 302.233 289.907 302.381 289.907 302.604C289.907 302.826 284.501 303.678 284.209 305.233C283.918 306.789 292.486 305.9 292.403 304.493C292.278 303.085 293.027 302.9 293.027 302.9Z" fill="#388161"/>
<path d="M293.068 312.79C293.609 312.16 295.356 309.826 294.69 306.826C294.274 304.789 292.943 303.456 292.195 302.826L291.737 303.233C292.444 303.789 293.65 305.048 294.025 306.9C294.607 309.678 293.027 311.79 292.527 312.382L293.068 312.79Z" fill="#388161"/>
<path d="M298.059 293.603C298.059 293.603 285.54 287.603 299.515 280.676C299.515 280.676 298.35 287.825 299.515 288.454C300.679 289.084 301.012 280.083 301.012 279.935C301.012 279.787 311.326 276.231 312.283 276.565C313.198 276.898 307.209 283.306 308.914 283.936C310.619 284.565 316.192 276.083 316.192 276.083C316.192 276.083 322.555 274.713 324.219 277.046C325.883 279.38 327.213 283.825 324.219 285.751C321.224 287.677 314.237 285.788 314.861 287.01C315.485 288.232 322.306 289.121 323.346 288.566C323.346 288.566 318.687 297.751 313.697 295.011C308.706 292.27 303.466 292.751 303.881 292.936C304.297 293.159 314.82 295.27 315.319 298.159C315.818 301.048 299.14 299.048 299.265 296.455C299.431 293.899 298.059 293.603 298.059 293.603Z" fill="#2B6555"/>
<path d="M298.017 311.938C297.019 310.752 293.817 306.456 294.981 300.9C295.771 297.159 298.225 294.677 299.598 293.529L300.43 294.307C299.14 295.381 296.894 297.677 296.146 301.122C295.064 306.233 298.017 310.197 298.932 311.308L298.017 311.938Z" fill="#388161"/>
<path d="M302.431 326.899H289.336C299.989 326.899 302.431 322.205 300.655 316.608C299.235 312.131 300.063 308.965 300.655 307.942H307.313L302.431 326.899Z" fill="#EDEDED"/>
<path fill-rule="evenodd" clip-rule="evenodd" d="M289.336 326.899L285.563 307.942H300.655C300.063 308.965 299.235 312.131 300.655 316.608C302.431 322.205 299.989 326.899 289.336 326.899Z" fill="#F9F9F9"/>
<path d="M354.965 91.1185H347.989C346.969 91.1185 346.164 90.3591 346.164 89.3971V80.3848C346.164 79.4228 346.969 78.6633 347.989 78.6633H354.965C355.984 78.6633 356.789 79.4228 356.789 80.3848V89.3971C356.789 90.3591 355.984 91.1185 354.965 91.1185Z" fill="#E0E0E0"/>
<path d="M351.477 27.1716C338.062 27.1716 327.169 37.4497 327.169 50.1075C327.169 54.4111 328.403 58.411 330.603 61.8033C330.71 62.0058 330.764 62.2083 330.925 62.4109L341.764 80.1317C341.979 80.4861 342.194 80.8912 342.408 81.195C342.408 81.2456 342.462 81.2456 342.462 81.2456C344.394 83.9797 347.721 85.7518 351.477 85.7518C355.233 85.7518 358.506 83.9797 360.492 81.2456C360.492 81.195 360.546 81.195 360.546 81.195C360.814 80.8406 361.028 80.4861 361.189 80.1317L372.029 62.4109C372.136 62.2083 372.244 62.0058 372.351 61.8033C374.497 58.3604 375.785 54.3605 375.785 50.1075C375.785 37.4497 364.892 27.1716 351.477 27.1716Z" fill="#E9E9E9"/>
<path d="M365.751 46.4115C365.214 46.2596 364.624 46.5127 364.463 47.019L351.477 81.7013L338.491 47.019C338.33 46.5127 337.74 46.2596 337.203 46.4115C336.667 46.5633 336.398 47.1203 336.559 47.6266L350.457 84.891C350.457 84.891 350.457 84.8911 350.457 84.9417C350.511 85.0429 350.511 85.0936 350.565 85.1948C350.618 85.2455 350.672 85.2961 350.726 85.3467C350.726 85.3467 350.779 85.3467 350.779 85.3974C350.833 85.448 350.94 85.4986 350.994 85.4986C351.101 85.5493 351.209 85.5493 351.316 85.5493C351.423 85.5493 351.531 85.5493 351.638 85.4986C351.691 85.448 351.799 85.448 351.852 85.3974C351.852 85.3974 351.906 85.3974 351.906 85.3467C351.96 85.2961 352.013 85.2455 352.067 85.1948C352.121 85.1442 352.174 85.0429 352.174 84.9417C352.174 84.9417 352.174 84.9417 352.174 84.891L366.073 47.6266C366.555 47.1203 366.287 46.5633 365.751 46.4115Z" fill="#E0E0E0"/>
<path d="M358.667 48.5886C358.506 48.5886 358.292 48.538 358.184 48.4874C357.916 48.3355 357.701 48.0823 357.594 47.7279C357.38 47.0697 357.541 46.2596 357.862 45.7027C358.077 45.3483 358.399 45.0951 358.775 44.8926C358.023 44.4369 357.058 44.2344 356.306 44.285C356.092 44.285 355.931 44.3356 355.716 44.3863C356.092 44.6394 356.36 44.9938 356.521 45.4495C356.682 46.0571 356.575 46.7659 356.199 47.3735C355.931 47.7785 355.609 48.0317 355.233 48.0823C354.804 48.1329 354.321 47.9811 353.892 47.576C353.301 47.0697 352.979 46.3609 353.033 45.7533C353.087 45.1457 353.516 44.69 354.053 44.3863C353.355 44.2344 352.604 44.1331 351.852 44.0825C351.209 44.0825 350.457 44.1331 349.76 44.285C350.457 44.8926 350.833 45.5001 350.833 46.0571C350.833 46.5128 350.511 46.9684 350.082 47.3229C349.652 47.6266 349.169 47.7785 348.74 47.7279C348.311 47.6773 347.935 47.3735 347.667 46.9684C347.291 46.4115 347.184 45.7533 347.345 45.1964C347.506 44.6901 347.882 44.3356 348.418 44.0825C347.291 43.4749 345.628 42.9686 344.34 43.5762C344.34 43.5762 344.286 43.5762 344.286 43.6268C344.447 43.7281 344.608 43.88 344.769 44.0319C345.413 44.7913 345.843 46.2596 344.877 47.0697C344.447 47.4241 343.803 47.6266 343.213 47.576C342.73 47.5254 342.355 47.3735 342.14 47.1203C341.872 46.8165 341.818 46.3102 341.925 45.7533C342.086 45.1457 342.462 44.4369 342.998 43.8293C342.838 43.7787 342.623 43.7787 342.462 43.7787C340.906 43.7281 339.242 45.0951 338.223 47.2216L337.632 46.9684C338.813 44.5888 340.637 43.1205 342.516 43.1711C342.945 43.1711 343.32 43.2218 343.642 43.3736C343.803 43.2724 343.911 43.1711 344.072 43.1205C345.682 42.361 347.721 42.9686 349.008 43.7281C349.062 43.7787 349.116 43.7787 349.169 43.8293C350.082 43.5255 351.209 43.4749 351.906 43.4749C352.657 43.4749 353.945 43.5762 354.965 43.9812C355.448 43.8293 355.931 43.7281 356.36 43.6774C357.433 43.5762 358.721 43.88 359.633 44.6394C360.706 44.3356 362.048 44.4369 363.121 44.8419C364.624 45.4495 365.375 46.614 365.697 47.2722L365.107 47.5254C364.838 46.9684 364.141 45.9052 362.853 45.3989C362.048 45.0951 361.028 44.9938 360.17 45.1457C360.277 45.2976 360.385 45.4495 360.492 45.6014C360.867 46.3102 360.867 46.9684 360.599 47.5254C360.331 47.9811 359.848 48.3861 359.311 48.538C358.989 48.5886 358.775 48.5886 358.667 48.5886ZM359.311 45.3483C358.936 45.5001 358.614 45.7533 358.399 46.0571C358.131 46.4621 358.023 47.1203 358.184 47.576C358.238 47.7785 358.345 47.9304 358.453 47.9811C358.56 48.0317 358.721 48.0317 358.936 47.9811C359.311 47.8798 359.633 47.576 359.794 47.2722C360.009 46.9178 359.955 46.4621 359.687 45.9052C359.58 45.652 359.472 45.5001 359.311 45.3483ZM354.804 44.6394C354.16 44.8926 353.677 45.2976 353.623 45.7533C353.57 46.1583 353.838 46.7153 354.267 47.0697C354.536 47.3229 354.857 47.4241 355.072 47.3735C355.233 47.3229 355.448 47.171 355.609 46.9684C355.877 46.5634 355.984 46.0065 355.877 45.6014C355.662 45.1964 355.287 44.8419 354.804 44.6394ZM348.901 44.4369C348.365 44.6394 347.989 44.9432 347.828 45.3483C347.721 45.7027 347.828 46.209 348.096 46.5634C348.257 46.8165 348.526 47.0191 348.74 47.0191C348.955 47.0697 349.277 46.9684 349.545 46.7659C349.867 46.5634 350.028 46.2596 350.028 45.9558C350.082 45.5508 349.599 44.9938 348.901 44.4369ZM343.535 43.9812C342.945 44.4875 342.569 45.1964 342.408 45.8039C342.301 46.1583 342.355 46.5128 342.462 46.6647C342.569 46.7659 342.784 46.8672 343.052 46.9178C343.481 46.9684 343.911 46.8165 344.233 46.5634C344.823 46.0571 344.555 44.9432 344.072 44.3863C343.911 44.2344 343.75 44.0825 343.535 43.9812Z" fill="#E0E0E0"/>
<path d="M272.703 69.7524L269.644 70.9676C268.786 69.4486 267.498 68.1829 266.049 67.3221L267.23 64.588C267.337 64.3855 267.23 64.183 267.015 64.0817L264.869 63.221C264.654 63.1197 264.439 63.221 264.332 63.4235L263.205 66.0563C261.434 65.6007 259.556 65.55 257.732 66.0057L256.605 63.4742C256.498 63.2716 256.283 63.221 256.068 63.2716L253.922 64.1324C253.707 64.2336 253.654 64.4361 253.707 64.6387L254.834 67.1702C253.224 68.0816 251.936 69.398 251.024 70.8663L248.234 69.8031C248.019 69.7018 247.805 69.8031 247.697 70.0056L246.785 72.0308C246.678 72.2334 246.785 72.4359 247 72.5371L249.897 73.651C249.522 75.2712 249.575 76.9927 250.112 78.6635L247.053 79.8787C246.839 79.9799 246.785 80.1825 246.839 80.385L247.751 82.4102C247.858 82.6127 248.073 82.6634 248.288 82.6127L251.454 81.347C252.419 82.714 253.707 83.8279 255.156 84.5874L253.761 87.7771C253.654 87.9797 253.761 88.1822 253.976 88.2834L256.122 89.1442C256.337 89.2454 256.551 89.1442 256.659 88.9416L258.107 85.7013C259.664 86.005 261.327 86.005 262.991 85.6L264.439 88.9416C264.547 89.1442 264.761 89.1948 264.976 89.1442L267.122 88.2834C267.337 88.1822 267.391 87.9797 267.337 87.7771L265.888 84.4355C267.337 83.6254 268.518 82.5115 269.376 81.2457L272.81 82.6127C273.025 82.714 273.24 82.6127 273.347 82.4102L274.259 80.385C274.367 80.1825 274.259 79.9799 274.045 79.8787L270.664 78.5622C271.093 77.0433 271.201 75.4231 270.825 73.8029L273.991 72.5371C274.206 72.4359 274.259 72.2334 274.206 72.0308L273.293 70.0056C273.132 69.7524 272.918 69.7018 272.703 69.7524ZM261.81 79.1192C259.878 79.8787 257.678 79.0179 256.873 77.1952C256.068 75.3725 256.981 73.2966 258.912 72.5371C260.844 71.7777 263.044 72.6384 263.849 74.4611C264.654 76.2839 263.742 78.3597 261.81 79.1192Z" fill="#E0E0E0"/>
<path d="M306.241 63.2716L300.124 63.8285C299.426 60.6894 297.924 57.8541 295.831 55.525L299.48 51.3226C299.748 51.0189 299.694 50.6138 299.372 50.3607L296.045 47.7785C295.724 47.5253 295.294 47.5759 295.026 47.8797L291.484 51.9302C288.64 50.2088 285.367 49.1455 281.825 48.9936L281.289 43.9305C281.235 43.5761 280.913 43.2723 280.484 43.3229L276.191 43.728C275.815 43.7786 275.493 44.0824 275.547 44.4874L276.084 49.5506C272.649 50.3607 269.644 51.9808 267.23 54.158L262.937 50.8163C262.615 50.5632 262.186 50.6138 261.917 50.9176L259.181 54.0567C258.912 54.3605 258.966 54.7656 259.288 55.0187L263.742 58.4616C262.132 61.1451 261.22 64.183 261.22 67.3727L255.102 67.9297C254.727 67.9803 254.405 68.2841 254.459 68.6891L254.888 72.7396C254.941 73.094 255.263 73.3978 255.693 73.3472L262.025 72.7902C262.937 75.7268 264.547 78.309 266.693 80.3849L262.4 85.2961C262.132 85.5999 262.186 86.005 262.508 86.2581L265.835 88.8403C266.157 89.0935 266.586 89.0428 266.854 88.739L271.254 83.6759C273.83 85.043 276.781 85.9037 279.894 86.0556L280.591 92.6883C280.645 93.0427 280.967 93.3465 281.396 93.2958L285.689 92.8908C286.065 92.8402 286.387 92.5364 286.333 92.1313L285.635 85.4987C288.64 84.7898 291.377 83.4228 293.631 81.6001L298.997 85.7518C299.319 86.005 299.748 85.9543 300.016 85.6505L302.753 82.5114C303.021 82.2076 302.968 81.8026 302.646 81.5494L297.441 77.4989C299.104 75.018 300.177 72.1827 300.499 69.1954L306.831 68.6385C307.207 68.5879 307.529 68.2841 307.475 67.879L307.046 63.8285C306.992 63.5247 306.617 63.221 306.241 63.2716ZM281.503 74.2585C277.64 74.613 274.259 71.9295 273.884 68.3347C273.508 64.6893 276.352 61.4995 280.162 61.1451C284.025 60.7907 287.406 63.4741 287.782 67.0689C288.211 70.6637 285.367 73.9041 281.503 74.2585Z" fill="#E0E0E0"/>
</svg>
