<svg width="149" height="28" viewBox="0 0 149 28" fill="none" xmlns="http://www.w3.org/2000/svg">
<path d="M3.3 14.82C3 14.52 2.58 14.34 2.1 14.34C1.65 14.34 1.2 14.52 0.9 14.82V1.26C0.9 0.6 1.44 0.0599996 2.1 0.0599996C2.76 0.0599996 3.3 0.6 3.3 1.26V14.82ZM5.61 21C3.03 21 0.9 18.78 0.9 16.05C0.9 15.39 1.44 14.85 2.1 14.85C2.76 14.85 3.3 15.39 3.3 16.05C3.3 16.74 3.54 17.4 4.02 17.88C4.44 18.36 5.01 18.6 5.61 18.6C6.21 18.6 6.78 18.36 7.23 17.88C7.68 17.4 7.95 16.74 7.95 16.05C7.95 15.39 8.49 14.85 9.15 14.85C9.81 14.85 10.35 15.39 10.35 16.05C10.35 18.78 8.22 21 5.61 21ZM14.55 2.4C14.55 3.09 14.01 3.63 13.35 3.63C12.69 3.63 12.15 3.09 12.15 2.4C12.15 1.74 12.69 1.2 13.35 1.2C14.01 1.2 14.55 1.74 14.55 2.4ZM14.55 10.26C14.25 9.96 13.83 9.78 13.35 9.78C12.9 9.78 12.45 9.96 12.15 10.26V6.45C12.15 5.79 12.69 5.25 13.35 5.25C14.01 5.25 14.55 5.79 14.55 6.45V10.26ZM14.55 11.49V19.8C14.55 20.46 14.01 21 13.35 21C12.69 21 12.15 20.46 12.15 19.8V11.49V11.37C12.21 10.77 12.72 10.29 13.35 10.29C13.98 10.29 14.49 10.77 14.55 11.37V11.49ZM21.9195 5.28C21.9195 5.94 21.3795 6.48 20.7195 6.48H18.7395V14.82C18.4395 14.52 18.0195 14.34 17.5395 14.34C17.0595 14.34 16.6395 14.52 16.3395 14.82V1.2C16.3395 0.539999 16.8795 -1.43051e-06 17.5395 -1.43051e-06C18.1995 -1.43051e-06 18.7395 0.539999 18.7395 1.2V4.08H20.7195C21.3795 4.08 21.9195 4.62 21.9195 5.28ZM17.5395 14.85C18.1995 14.85 18.7395 15.39 18.7395 16.05C18.7395 16.74 19.0095 17.4 19.4595 17.88C19.8795 18.36 20.4495 18.6 21.0495 18.6C21.7095 18.6 22.3395 18.3 22.7895 17.73C23.2095 17.22 23.9595 17.16 24.4695 17.58C25.0095 18 25.0695 18.75 24.6495 19.26C23.7495 20.37 22.4595 21 21.0495 21C18.4695 21 16.3395 18.78 16.3395 16.05C16.3395 15.39 16.8795 14.85 17.5395 14.85ZM31.8511 5.28C31.8511 5.94 31.3111 6.48 30.6511 6.48H28.6711V14.82C28.3711 14.52 27.9511 14.34 27.4711 14.34C26.9911 14.34 26.5711 14.52 26.2711 14.82V1.2C26.2711 0.539999 26.8111 -1.43051e-06 27.4711 -1.43051e-06C28.1311 -1.43051e-06 28.6711 0.539999 28.6711 1.2V4.08H30.6511C31.3111 4.08 31.8511 4.62 31.8511 5.28ZM27.4711 14.85C28.1311 14.85 28.6711 15.39 28.6711 16.05C28.6711 16.74 28.9411 17.4 29.3911 17.88C29.8111 18.36 30.3811 18.6 30.9811 18.6C31.6411 18.6 32.2711 18.3 32.7211 17.73C33.1411 17.22 33.8911 17.16 34.4011 17.58C34.9411 18 35.0011 18.75 34.5811 19.26C33.6811 20.37 32.3911 21 30.9811 21C28.4011 21 26.2711 18.78 26.2711 16.05C26.2711 15.39 26.8111 14.85 27.4711 14.85ZM38.6027 14.82C38.3027 14.52 37.8827 14.34 37.4027 14.34C36.9527 14.34 36.5027 14.52 36.2027 14.82V1.26C36.2027 0.6 36.7427 0.0599996 37.4027 0.0599996C38.0627 0.0599996 38.6027 0.6 38.6027 1.26V14.82ZM37.4027 14.85C38.0627 14.85 38.6027 15.39 38.6027 16.05C38.6027 16.74 38.8727 17.4 39.3227 17.88C39.7427 18.36 40.3127 18.6 40.9127 18.6C41.5727 18.6 42.2027 18.3 42.6527 17.73C43.0727 17.22 43.8227 17.16 44.3327 17.58C44.8727 18 44.9327 18.75 44.5127 19.26C43.6127 20.37 42.3227 21 40.9127 21C38.3327 21 36.2027 18.78 36.2027 16.05C36.2027 15.39 36.7427 14.85 37.4027 14.85ZM54.9984 10.2C54.9984 10.35 54.9684 10.47 54.9384 10.59C54.7884 11.07 54.3084 11.4 53.7984 11.4C53.1384 11.4 52.5984 10.86 52.5984 10.2C52.5984 10.14 52.5984 10.08 52.5684 10.02C52.5384 9.39 52.2984 8.82 51.8784 8.37C51.4284 7.92 50.8584 7.65 50.2584 7.65C49.6584 7.65 49.0884 7.92 48.6684 8.37C48.2484 8.82 48.0084 9.39 47.9484 10.02V10.2C47.9484 10.86 47.4084 11.4 46.7484 11.4C46.2084 11.4 45.7584 11.07 45.6084 10.59C45.5784 10.47 45.5484 10.35 45.5484 10.2V10.02C45.5484 9.81 45.5784 9.63 45.6084 9.42C45.9684 7.08 47.9184 5.25 50.2584 5.25C52.6284 5.25 54.5784 7.08 54.9384 9.42C54.9684 9.63 54.9684 9.81 54.9984 10.02V10.2ZM54.9984 16.53C54.9984 17.85 54.4884 19.02 53.5584 19.83C52.6884 20.58 51.5184 21 50.2584 21C47.6784 21 45.5484 18.78 45.5484 16.05V11.43C45.6684 11.52 45.7884 11.64 45.9084 11.7C46.1484 11.85 46.4484 11.91 46.7484 11.91C47.2284 11.91 47.6484 11.73 47.9484 11.43C48.0684 11.31 48.1584 11.19 48.2484 11.04C48.3384 11.25 48.4884 11.46 48.6684 11.64C49.0884 12.09 49.6584 12.36 50.2584 12.36C50.8584 12.36 51.4284 12.09 51.8784 11.64C52.0584 11.46 52.1784 11.25 52.2984 11.04C52.5984 11.58 53.1384 11.91 53.7984 11.91C54.0984 11.91 54.3684 11.85 54.6384 11.7C53.9184 13.5 52.2384 14.76 50.2584 14.76C49.4184 14.76 48.6384 14.52 47.9484 14.13V16.05C47.9484 16.74 48.1884 17.4 48.6684 17.88C49.0884 18.33 49.6584 18.6 50.2584 18.6C50.9484 18.6 51.5484 18.39 51.9684 18.03C52.3884 17.67 52.5984 17.16 52.5984 16.53C52.5984 15.87 53.1384 15.33 53.7984 15.33C54.4584 15.33 54.9984 15.87 54.9984 16.53Z" fill="black"/>
<path d="M81.0914 19.8C81.0914 20.46 80.5514 21 79.8914 21C79.2314 21 78.6914 20.46 78.6914 19.8V4.98C78.6914 4.29 78.4214 3.63 77.9714 3.15C77.5214 2.7 76.9514 2.43 76.3514 2.43C75.7514 2.43 75.1814 2.7 74.7614 3.15C74.6114 3.3 74.4914 3.48 74.4014 3.66C74.1614 2.76 73.7414 1.98 73.1714 1.32C74.0114 0.509999 75.1214 0.0299982 76.3514 0.0299982C78.9614 0.0299982 81.0914 2.25 81.0914 4.98V19.8ZM74.0414 5.01V5.13C73.9814 5.76 73.4714 6.24 72.8414 6.24C72.2114 6.24 71.7014 5.76 71.6414 5.13V5.01C71.6414 3.6 70.5914 2.46 69.3314 2.46C68.0414 2.46 66.9914 3.6 66.9914 5.01V5.13C66.9314 5.76 66.4214 6.24 65.7914 6.24C65.1614 6.24 64.6514 5.76 64.5914 5.13V5.01C64.5914 2.28 66.7214 0.0599996 69.3314 0.0599996C70.7114 0.0599996 71.9714 0.689999 72.8414 1.71C73.5614 2.55 74.0114 3.66 74.0414 4.86V5.01ZM65.7914 6.75C66.2714 6.75 66.6914 6.54 66.9914 6.24V19.8C66.9914 20.46 66.4514 21 65.7914 21C65.1314 21 64.5914 20.46 64.5914 19.8V6.24C64.9214 6.54 65.3414 6.75 65.7914 6.75ZM74.0414 19.8C74.0414 20.46 73.5014 21 72.8414 21C72.1814 21 71.6414 20.46 71.6414 19.8V6.24C71.9414 6.54 72.3614 6.75 72.8414 6.75C73.2914 6.75 73.7414 6.54 74.0414 6.24V19.8ZM87.612 5.25C85.032 5.25 82.902 7.47 82.902 10.2V14.82C83.202 14.52 83.622 14.34 84.102 14.34C84.582 14.34 85.002 14.52 85.302 14.82V10.2C85.302 9.51 85.542 8.85 86.022 8.37C86.442 7.89 87.012 7.65 87.612 7.65C88.212 7.65 88.782 7.89 89.232 8.37C89.682 8.85 89.952 9.51 89.952 10.2V14.82C90.252 14.52 90.672 14.34 91.152 14.34C91.602 14.34 92.022 14.52 92.352 14.82V10.2C92.352 7.47 90.222 5.25 87.612 5.25ZM91.152 14.85C90.672 14.85 90.252 15.12 90.072 15.51C89.982 15.66 89.952 15.84 89.952 16.05C89.952 16.74 89.682 17.4 89.232 17.88C88.782 18.33 88.212 18.6 87.612 18.6C87.012 18.6 86.442 18.33 86.022 17.88C85.542 17.4 85.302 16.74 85.302 16.05C85.302 15.84 85.272 15.66 85.182 15.51C84.972 15.12 84.582 14.85 84.102 14.85C83.622 14.85 83.232 15.12 83.022 15.51C82.962 15.66 82.902 15.84 82.902 16.05C82.902 18.78 85.032 21 87.612 21H87.642C89.742 21 91.512 19.53 92.112 17.52C92.262 17.07 92.352 16.56 92.352 16.05C92.352 15.84 92.292 15.66 92.232 15.51C92.022 15.12 91.602 14.85 91.152 14.85ZM103.602 10.32C103.542 10.95 103.032 11.43 102.402 11.43C101.742 11.43 101.232 10.95 101.202 10.32V10.23C101.202 9.54 100.932 8.88 100.482 8.4C100.032 7.95 99.462 7.68 98.862 7.68C98.262 7.68 97.692 7.95 97.272 8.4C96.792 8.88 96.552 9.54 96.552 10.23C96.552 10.89 96.012 11.43 95.352 11.43C94.692 11.43 94.152 10.89 94.152 10.23C94.152 7.5 96.282 5.28 98.862 5.28C101.472 5.28 103.602 7.5 103.602 10.23V10.32ZM95.352 11.94C95.832 11.94 96.252 11.76 96.552 11.46V19.8C96.552 20.46 96.012 21 95.352 21C94.692 21 94.152 20.46 94.152 19.8V11.46C94.452 11.76 94.872 11.94 95.352 11.94ZM103.602 19.8C103.602 20.46 103.062 21 102.402 21C101.742 21 101.202 20.46 101.202 19.8V11.46C101.502 11.76 101.922 11.94 102.402 11.94C102.852 11.94 103.272 11.76 103.602 11.46V19.8ZM107.802 1.26C107.802 0.6 107.262 0.0599996 106.602 0.0599996C105.942 0.0599996 105.402 0.6 105.402 1.26V5.31C105.702 5.01 106.152 4.83 106.602 4.83C107.082 4.83 107.502 5.01 107.802 5.31V1.26ZM113.652 5.34C112.992 5.34 112.482 5.85 112.452 6.48V6.54C112.452 7.23 112.182 7.89 111.732 8.37C111.552 8.58 111.312 8.76 111.072 8.88C110.772 9.03 110.472 9.09 110.112 9.09C109.782 9.09 109.482 9.03 109.182 8.88C108.942 8.76 108.702 8.58 108.522 8.37C108.072 7.89 107.802 7.23 107.802 6.54C107.802 5.88 107.262 5.34 106.602 5.34C105.942 5.34 105.402 5.88 105.402 6.54C105.402 7.95 105.972 9.24 106.872 10.14C107.142 10.41 107.472 10.65 107.802 10.86C108.222 11.1 108.672 11.28 109.182 11.4C109.482 11.46 109.812 11.49 110.112 11.49C110.442 11.49 110.772 11.46 111.072 11.4C111.942 11.22 112.752 10.77 113.382 10.14C114.282 9.24 114.852 7.95 114.852 6.54V6.48C114.822 5.85 114.282 5.34 113.652 5.34ZM106.542 10.5C106.062 10.05 105.672 9.51 105.402 8.91V19.8C105.402 20.46 105.942 21 106.602 21C107.262 21 107.802 20.46 107.802 19.8V13.59C107.832 12.93 108.072 12.36 108.522 11.88L108.612 11.79C108.342 11.7 108.072 11.58 107.802 11.43C107.352 11.19 106.902 10.89 106.542 10.5ZM111.612 11.79C111.672 11.82 111.702 11.85 111.732 11.88C112.182 12.39 112.452 13.02 112.452 13.71V19.8C112.452 20.46 112.992 21 113.652 21C114.312 21 114.852 20.46 114.852 19.8V13.71C114.852 12.51 114.432 11.37 113.712 10.5C113.142 11.1 112.422 11.52 111.612 11.79ZM126.102 10.2C126.102 10.35 126.072 10.47 126.042 10.59C125.892 11.07 125.412 11.4 124.902 11.4C124.242 11.4 123.702 10.86 123.702 10.2C123.702 10.14 123.702 10.08 123.672 10.02C123.642 9.39 123.402 8.82 122.982 8.37C122.532 7.92 121.962 7.65 121.362 7.65C120.762 7.65 120.192 7.92 119.772 8.37C119.352 8.82 119.112 9.39 119.052 10.02V10.2C119.052 10.86 118.512 11.4 117.852 11.4C117.312 11.4 116.862 11.07 116.712 10.59C116.682 10.47 116.652 10.35 116.652 10.2V10.02C116.652 9.81 116.682 9.63 116.712 9.42C117.072 7.08 119.022 5.25 121.362 5.25C123.732 5.25 125.682 7.08 126.042 9.42C126.072 9.63 126.072 9.81 126.102 10.02V10.2ZM126.102 16.53C126.102 17.85 125.592 19.02 124.662 19.83C123.792 20.58 122.622 21 121.362 21C118.782 21 116.652 18.78 116.652 16.05V11.43C116.772 11.52 116.892 11.64 117.012 11.7C117.252 11.85 117.552 11.91 117.852 11.91C118.332 11.91 118.752 11.73 119.052 11.43C119.172 11.31 119.262 11.19 119.352 11.04C119.442 11.25 119.592 11.46 119.772 11.64C120.192 12.09 120.762 12.36 121.362 12.36C121.962 12.36 122.532 12.09 122.982 11.64C123.162 11.46 123.282 11.25 123.402 11.04C123.702 11.58 124.242 11.91 124.902 11.91C125.202 11.91 125.472 11.85 125.742 11.7C125.022 13.5 123.342 14.76 121.362 14.76C120.522 14.76 119.742 14.52 119.052 14.13V16.05C119.052 16.74 119.292 17.4 119.772 17.88C120.192 18.33 120.762 18.6 121.362 18.6C122.052 18.6 122.652 18.39 123.072 18.03C123.492 17.67 123.702 17.16 123.702 16.53C123.702 15.87 124.242 15.33 124.902 15.33C125.562 15.33 126.102 15.87 126.102 16.53ZM130.302 14.82C130.002 14.52 129.582 14.34 129.102 14.34C128.622 14.34 128.202 14.52 127.902 14.82V6.45C127.902 5.79 128.442 5.25 129.102 5.25C129.762 5.25 130.302 5.79 130.302 6.45V14.82ZM137.352 14.82C137.022 14.52 136.602 14.34 136.152 14.34C135.672 14.34 135.252 14.52 134.952 14.82V6.45C134.952 5.79 135.492 5.25 136.152 5.25C136.812 5.25 137.352 5.79 137.352 6.45V14.82ZM132.612 21C130.032 21 127.902 18.78 127.902 16.05C127.902 15.39 128.442 14.85 129.102 14.85C129.762 14.85 130.302 15.39 130.302 16.05C130.302 16.74 130.542 17.4 131.022 17.88C131.442 18.36 132.012 18.6 132.612 18.6C133.212 18.6 133.782 18.36 134.232 17.88C134.682 17.4 134.952 16.74 134.952 16.05C134.952 15.39 135.492 14.85 136.152 14.85C136.812 14.85 137.352 15.39 137.352 16.05C137.352 18.78 135.222 21 132.612 21ZM137.352 22.29C137.352 25.02 135.222 27.24 132.612 27.24C131.352 27.24 130.182 26.85 129.342 26.1C128.412 25.29 127.902 24.09 127.902 22.77C127.902 22.11 128.442 21.57 129.102 21.57C129.762 21.57 130.302 22.11 130.302 22.77C130.302 23.43 130.512 23.94 130.932 24.3C131.352 24.66 131.952 24.84 132.612 24.84C133.212 24.84 133.782 24.6 134.232 24.12C134.682 23.64 134.952 22.98 134.952 22.29V20.94C136.002 20.4 136.842 19.5 137.352 18.39V22.29ZM139.152 10.23C139.152 9.72 139.242 9.21 139.362 8.76C139.962 6.75 141.762 5.28 143.832 5.28H143.862C146.472 5.28 148.602 7.5 148.602 10.23C148.602 10.44 148.542 10.62 148.482 10.77C148.272 11.16 147.852 11.43 147.402 11.43C146.922 11.43 146.502 11.16 146.322 10.77C146.232 10.62 146.202 10.44 146.202 10.23C146.202 9.54 145.932 8.88 145.482 8.4C145.032 7.95 144.462 7.68 143.862 7.68C143.262 7.68 142.692 7.95 142.272 8.4C141.792 8.88 141.552 9.54 141.552 10.23C141.552 10.44 141.522 10.62 141.432 10.77C141.222 11.16 140.832 11.43 140.352 11.43C139.872 11.43 139.482 11.16 139.272 10.77C139.212 10.62 139.152 10.44 139.152 10.23ZM145.692 16.05C145.692 16.08 145.662 16.11 145.662 16.14L140.532 11.94C141.402 11.85 142.062 11.1 142.062 10.23V10.08L147.252 14.34C146.382 14.4 145.692 15.15 145.692 16.05ZM148.602 16.05C148.602 16.56 148.512 17.07 148.362 17.52C147.762 19.53 145.992 21 143.892 21H143.862C141.282 21 139.152 18.78 139.152 16.05C139.152 15.84 139.212 15.66 139.272 15.51C139.482 15.12 139.872 14.85 140.352 14.85C140.832 14.85 141.222 15.12 141.432 15.51C141.522 15.66 141.552 15.84 141.552 16.05C141.552 16.74 141.792 17.4 142.272 17.88C142.692 18.33 143.262 18.6 143.862 18.6C144.462 18.6 145.032 18.33 145.482 17.88C145.932 17.4 146.202 16.74 146.202 16.05C146.202 15.84 146.232 15.66 146.322 15.51C146.502 15.12 146.922 14.85 147.402 14.85C147.852 14.85 148.272 15.12 148.482 15.51C148.542 15.66 148.602 15.84 148.602 16.05Z" fill="#AA7BD4"/>
</svg>
