<?xml version="1.0" encoding="utf-8"?>
<!-- Generator: Adobe Illustrator 23.1.0, SVG Export Plug-In . SVG Version: 6.00 Build 0)  -->
<svg version="1.1" id="Layer_1" xmlns="http://www.w3.org/2000/svg" xmlns:xlink="http://www.w3.org/1999/xlink" x="0px" y="0px"
	 viewBox="0 0 150 25" style="enable-background:new 0 0 150 25;" xml:space="preserve">
<style type="text/css">
	.st0{fill:#151515;}
	.st1{fill-rule:evenodd;clip-rule:evenodd;fill:#151515;}
	.st2{fill:#cd94ff;}
</style>
<path class="st0" d="M101.7,12.9l1.3-6.6h1.7l0.7,6.3l-1.9,2.9L101.7,12.9z"/>
<path class="st1" d="M68,0.1c0.7,0,1.4,0,2.1,0.2v3.2h3.4c0.2,1,0.3,2,0.3,2.9c0,1-0.1,2.1-0.3,3.1c-0.1,0.7-0.5,1.4-1,1.9
	c-0.5,0.5-1.1,0.8-1.8,1c-0.9,0.2-1.8,0.3-2.7,0.3c-1,0-2,0-2.8-0.1c-0.5,0-0.9,0-1.4-0.1c-0.4,0-0.7,0-1-0.1V0.3
	c0.8-0.1,1.6-0.1,2.4-0.1C66,0.1,66.9,0.1,68,0.1z M7.7,0.1c0.9,0,1.8,0.1,2.7,0.3c0.7,0.2,1.2,0.5,1.4,0.9c0.3,0.5,0.4,1.1,0.4,2
	c0,0.9-0.2,1.6-0.5,2C11.4,5.7,10.8,6,10,6.1v0.1c1,0.1,1.7,0.4,2.1,1c0.4,0.5,0.6,1.3,0.6,2.3c0,0.8-0.2,1.5-0.5,2
	c-0.3,0.5-0.9,0.8-1.4,1c-0.8,0.2-1.7,0.3-2.5,0.3H6.4V10h1.1c0.5,0,0.9-0.1,1-0.3c0.2-0.2,0.2-0.5,0.2-1.1s-0.1-1-0.2-1.1
	C8.4,7.4,8,7.3,7.5,7.3H6.1v2.1H2.9v3.2l-0.6,0V0.2c0.5-0.1,1-0.1,1.6-0.1c0.5,0,1.1,0,1.7,0C6.2,0.1,6.9,0.1,7.7,0.1z M7.5,2.7H6.8
	H6.1V5h1.4C8,5,8.2,4.9,8.4,4.8c0.1-0.1,0.2-0.5,0.2-0.9c0-0.5-0.1-0.8-0.2-0.9C8.2,2.8,7.9,2.7,7.5,2.7z M22.1,0.1
	c1.2,0,2.2,0.1,2.9,0.4c0.7,0.2,1.3,0.6,1.7,1.2s0.6,1.3,0.6,2.2c0,0.5-0.1,0.9-0.2,1.4c-0.1,0.4-0.4,0.8-0.8,1
	c-0.4,0.3-1,0.5-1.5,0.5v0.1c0.3,0,0.5,0.1,0.7,0.2c0.3,0.1,0.6,0.3,0.8,0.6c0.3,0.3,0.4,0.7,0.5,1.1l1,3.8h-4L23,8.9
	c-0.1-0.3-0.2-0.6-0.3-0.7C22.4,8.1,22.2,8,21.9,8h-1.2v4.5h-3.8V0.2c0.5-0.1,1-0.1,1.5-0.1c0.5,0,1,0,1.6,0
	C20.6,0.1,21.3,0.1,22.1,0.1z M22.1,2.8h-1.3v2.5h1.3c0.6,0,0.9-0.1,1.1-0.2c0.2-0.2,0.3-0.5,0.3-1c0-0.5-0.1-0.8-0.3-1
	S22.6,2.8,22.1,2.8z M38.7,0.2c0.3,0,0.6,0.1,0.8,0.3C39.7,0.7,39.9,1,40,1.2l3.2,11.3h-3.9l-0.6-2.6h-3.4l-0.6,2.6h-3.9l3.2-11.3
	c0.1-0.3,0.2-0.5,0.5-0.7c0.2-0.2,0.5-0.3,0.8-0.3H38.7z M36.5,4.5l-0.6,2.6H38l-0.6-2.6c-0.1-0.2-0.1-0.4-0.1-0.7s-0.1-0.5-0.1-0.7
	h-0.5c0,0.1,0,0.2,0,0.4c0,0.1,0,0.2,0,0.3C36.6,4.1,36.5,4.3,36.5,4.5z M58,0.2v10.9c0,0.9-0.4,1.3-1.3,1.3h-1.5
	c-0.3,0-0.7-0.1-0.9-0.3c-0.2-0.3-0.4-0.5-0.6-0.8l-2.7-4.2c-0.2-0.3-0.3-0.7-0.5-1c-0.1-0.4-0.2-0.7-0.4-1.1h-0.1
	c0.1,0.3,0.1,0.7,0.1,1c0,0,0,0.1,0,0.1c0,0.4,0.1,0.7,0.1,1.1v5.2h-3.5V1.6c0-0.9,0.4-1.3,1.3-1.3h1.5c0.4,0,0.7,0.1,0.9,0.3
	c0.2,0.3,0.4,0.5,0.6,0.8l2.6,4c0.2,0.3,0.3,0.6,0.5,1c0.2,0.4,0.3,0.7,0.5,1.1h0.1c-0.1-0.4-0.1-0.7-0.1-1.1l0-0.1c0-0.4,0-0.7,0-1
	l0-5H58z M67.9,2.9h-0.7h-0.7v7c0.4,0,0.9,0,1.4,0c0.4,0,0.7-0.1,1-0.3c0.2-0.2,0.4-0.5,0.5-1c0.2-1.4,0.2-2.9,0-4.4
	c-0.1-0.5-0.3-0.9-0.5-1C68.6,2.9,68.3,2.8,67.9,2.9z M89.9,0.1c0.9,0,1.8,0.1,2.7,0.3c0.7,0.2,1.2,0.5,1.4,1c0.3,0.5,0.4,1.1,0.4,2
	c0,0.9-0.2,1.6-0.5,2C93.6,5.8,93,6,92.2,6.1v0.1c1,0.1,1.7,0.4,2.1,1c0.4,0.5,0.6,1.3,0.6,2.3c0,0.8-0.2,1.5-0.5,2
	c-0.3,0.5-0.9,0.8-1.4,1c-0.8,0.2-1.7,0.3-2.5,0.3c-0.9,0-1.7,0-2.3,0c-0.7,0-1.3,0-1.8,0c-0.5,0-1.1-0.1-1.6-0.1l-0.1,0V0.3
	c0.5-0.1,1-0.1,1.5-0.1l0,0c0.5,0,1.1,0,1.7,0C88.4,0.1,89.1,0.1,89.9,0.1z M89.7,2.7H89h-0.6V5h1.4c0.4,0,0.7-0.1,0.9-0.2
	c0.1-0.1,0.2-0.4,0.2-0.9s-0.1-0.8-0.2-0.9C90.4,2.8,90.1,2.7,89.7,2.7z M89.7,7.3h-1.4V10h1.4c0.5,0,0.9-0.1,1-0.3
	C91,9.6,91,9.2,91,8.7s-0.1-1-0.2-1.1C90.6,7.4,90.3,7.3,89.7,7.3z M109.6,0.2l-3.5,7.3l-4.9,0l0,0.1l-3.5-7.4h4l1.5,3.9
	c0.1,0.3,0.2,0.6,0.2,0.9c0,0.1,0,0.3,0.1,0.4c0,0.2,0.1,0.3,0.1,0.5h0.2c0-0.1,0.1-0.3,0.1-0.5c0-0.1,0-0.3,0.1-0.4
	c0-0.3,0.1-0.6,0.2-0.9l1.5-3.8H109.6z M123.2,0.2v2.9h-3.4v1.5h-1.2v3.6h1.2v4.3h-3.9V3.1h-3.4V0.2H123.2z M129.9,0.2
	c0.7,0,1.4,0,2.2,0c0.8,0,1.5,0,2.2,0c0.7,0,1.3,0.1,2,0.2l-0.8,1.4l0.7,1.4h-4.5c-0.2,0-0.4,0-0.5,0.2c-0.1,0.1-0.2,0.3-0.2,0.5
	v1.2h4.6v2.6h-4.6V9c0,0.2,0.1,0.4,0.2,0.5c0.1,0.1,0.4,0.2,0.5,0.2h4.5l0.2,2.7c-0.6,0.1-1.2,0.1-2,0.2c-0.7,0-1.5,0-2.2,0.1
	c-0.7,0-1.5,0-2.2,0c-0.8,0-1.5-0.2-2.1-0.8c-0.5-0.5-0.8-1.3-0.8-2V3c0-0.8,0.3-1.5,0.8-2C128.4,0.4,129.1,0.1,129.9,0.2z"/>
<path class="st2" d="M3.6,9.3H0v3.6h3.6V9.3z"/>
</svg>
