<svg width="148" height="148" viewBox="0 0 148 148" fill="none" xmlns="http://www.w3.org/2000/svg">
<g filter="url(#filter0_d)">
<circle cx="74" cy="70" r="60" fill="#FFFEFE"/>
<circle cx="74" cy="70" r="59.4" stroke="white" stroke-width="1.2"/>
</g>
<g opacity="0.5" clip-path="url(#clip0)">
<path d="M96.7858 96.041C94.7898 94.5516 91.1661 92.0795 87.2201 90.2524C83.274 88.4406 80.9555 84.1874 81.585 79.9036C81.585 79.8421 81.6004 79.7807 81.6157 79.704C81.6157 79.704 90.598 73.6236 89.3543 67.6969C89.3543 67.6969 89.6307 67.7122 90.0453 67.6815C94.0067 67.313 94.2523 61.4169 90.337 60.7874C90.3063 60.7874 90.2602 60.7721 90.2295 60.7721L90.1067 60.1272C91.3043 55.9355 94.2216 43.2374 85.3929 44.4658C85.3929 44.4658 79.0516 33.9788 65.6472 39.0303C52.2276 44.0666 55.7283 56.089 55.7283 56.089L57.3866 60.8795C53.7783 61.7701 54.1161 67.3437 57.9547 67.6969C58.3693 67.7276 58.661 67.7122 58.661 67.7122C57.402 73.639 66.3842 79.7193 66.3842 79.7193C66.3996 79.7961 66.3996 79.8575 66.415 79.9189C67.0291 84.2028 64.7106 88.4559 60.7799 90.2677C56.8185 92.0949 53.2102 94.5823 51.2142 96.0563C50.0165 96.9315 48.9571 97.991 48.1433 99.2347C55.0528 105.3 64.0964 109 74 109C83.9189 109 92.9626 105.3 99.8413 99.204C99.0429 97.9756 97.9835 96.9162 96.7858 96.041Z" fill="#787878"/>
</g>
<defs>
<filter id="filter0_d" x="0" y="0" width="148" height="148" filterUnits="userSpaceOnUse" color-interpolation-filters="sRGB">
<feFlood flood-opacity="0" result="BackgroundImageFix"/>
<feColorMatrix in="SourceAlpha" type="matrix" values="0 0 0 0 0 0 0 0 0 0 0 0 0 0 0 0 0 0 127 0"/>
<feOffset dy="4"/>
<feGaussianBlur stdDeviation="7"/>
<feColorMatrix type="matrix" values="0 0 0 0 0 0 0 0 0 0 0 0 0 0 0 0 0 0 0.25 0"/>
<feBlend mode="normal" in2="BackgroundImageFix" result="effect1_dropShadow"/>
<feBlend mode="normal" in="SourceGraphic" in2="effect1_dropShadow" result="shape"/>
</filter>
<clipPath id="clip0">
<rect width="78" height="78" fill="white" transform="translate(35 31)"/>
</clipPath>
</defs>
</svg>
