<svg width="65" height="65" viewBox="0 0 65 65" fill="none" xmlns="http://www.w3.org/2000/svg">
<circle cx="32.5" cy="32.5" r="32" stroke="black"/>
<g filter="url(#filter0_d)">
<circle cx="32.5" cy="32.5" r="22.5" fill="white"/>
</g>
<path fill-rule="evenodd" clip-rule="evenodd" d="M44.9821 22.542C44.9194 21.386 44.0389 20.3428 42.8402 20.0978L32.8351 20C31.4437 20.0098 30.1511 21.1755 30.1044 22.4833C30.075 23.3892 30.0768 24.2976 30.0783 25.2064C30.079 25.5854 30.0797 25.9641 30.0783 26.3431V26.6272C30.0239 26.6229 29.9728 26.6182 29.9239 26.6135C29.8087 26.6026 29.7065 26.5928 29.604 26.5928C27.1758 26.5881 24.7527 26.5881 22.3242 26.5928C21.2766 26.5928 20.2971 27.3081 20.0833 28.2731C20.0116 28.6035 20.0101 28.951 20.0087 29.296C20.008 29.4011 20.0076 29.5062 20.0051 29.6102C20 29.8501 20.1562 29.9725 20.3961 29.9725C20.6305 29.9725 20.7765 29.8403 20.787 29.6051C20.7947 29.4399 20.7936 29.2746 20.7928 29.1094C20.7925 29.0543 20.7921 28.9992 20.7921 28.9442C20.7972 27.9546 21.4592 27.3226 22.5119 27.3226C24.0436 27.3193 25.5731 27.3204 27.1037 27.3215C27.869 27.3222 28.6346 27.3226 29.4007 27.3226C30.4638 27.3277 31.1414 27.9596 31.1414 28.9586V35.6496C31.0465 35.6496 30.9559 35.6489 30.8679 35.6486C30.7005 35.6475 30.5432 35.6464 30.3859 35.6496C29.4895 35.6692 28.8695 36.1051 28.5828 36.9034C28.5567 36.977 28.4941 37.0603 28.4263 37.1092C27.9364 37.4716 27.4414 37.8292 26.9464 38.1869C26.9073 38.2173 26.8663 38.2441 26.8218 38.2731C26.795 38.2905 26.7674 38.3086 26.7381 38.3289C26.7337 38.3039 26.7301 38.2869 26.7276 38.2746C26.7239 38.2576 26.7225 38.2492 26.7225 38.2409C26.717 38.0202 26.717 37.7999 26.717 37.5796C26.717 37.1241 26.6025 37.0114 26.1231 37.0114C25.7271 37.0114 25.331 37.0118 24.935 37.0125C24.1429 37.0136 23.3507 37.0147 22.5586 37.0114C22.3763 37.0114 22.1886 37.0114 22.0165 36.9723C21.2715 36.8056 20.7921 36.2225 20.7921 35.4978C20.7885 34.6981 20.7899 33.9002 20.791 33.1019C20.7914 32.7022 20.7921 32.3029 20.7921 31.9025C20.7921 31.6869 20.7244 31.5108 20.4689 31.4716C20.1772 31.4223 20 31.5742 20 31.8782C20 33.0928 20 34.3075 20.0156 35.5076C20.0156 35.6543 20.0261 35.8015 20.0573 35.9435C20.3073 37.031 21.2505 37.7412 22.4702 37.751C23.1721 37.7542 23.8718 37.7531 24.5704 37.7521C24.9197 37.7513 25.2687 37.751 25.6177 37.751H25.9249V39.0196C25.9249 39.1957 25.9822 39.3378 26.1594 39.4211C26.342 39.5095 26.4931 39.4457 26.6391 39.3377C26.8932 39.1508 27.1472 38.967 27.4041 38.7812C27.4635 38.738 27.5226 38.6953 27.582 38.6522C27.8331 38.4732 28.0802 38.2945 28.3509 38.0985C28.4064 38.0586 28.4625 38.0177 28.5201 37.9764V38.2996C28.5201 38.6467 28.5209 38.9935 28.522 39.3406C28.5241 40.2085 28.5263 41.076 28.5151 41.9439C28.4995 43.1487 29.5 43.8343 30.4638 43.7854C30.9135 43.7618 31.3654 43.7683 31.8162 43.7749C32.0242 43.7778 32.2318 43.7807 32.4391 43.7807H32.7202C32.7202 43.856 32.7213 43.9278 32.7221 43.9966C32.7242 44.16 32.726 44.3083 32.7152 44.4565C32.6942 44.6866 32.7674 44.8681 32.9706 45H33.283C33.4171 44.9011 33.5515 44.804 33.6856 44.7072C33.9689 44.5025 34.2512 44.2988 34.5233 44.0792C34.7944 43.8589 35.0705 43.7611 35.4354 43.7658C36.2587 43.7807 36.9725 43.2516 37.1497 42.4972C37.2139 42.2287 37.2149 41.9471 37.216 41.6659C37.2164 41.6032 37.2168 41.5409 37.2175 41.4786C37.2175 41.2188 37.0714 41.0865 36.8269 41.0818C36.5714 41.0818 36.4308 41.2141 36.4203 41.4884C36.4181 41.5786 36.4185 41.6695 36.4192 41.7609C36.4203 41.8826 36.421 42.0047 36.4149 42.125C36.3993 42.5559 36.1126 42.899 35.6593 43.0016C35.4771 43.0411 35.2789 43.0556 35.0915 43.0411C34.7944 43.0211 34.5545 43.0947 34.3306 43.281C34.1621 43.4226 33.9813 43.548 33.7845 43.6843C33.6954 43.7459 33.603 43.8096 33.5073 43.8785V43.5651C33.5019 43.1534 33.3873 43.0458 32.9496 43.0458C32.663 43.0458 32.3767 43.0465 32.0905 43.0469C31.519 43.048 30.9483 43.049 30.3754 43.0458C29.7449 43.0458 29.3123 42.649 29.3123 42.0515C29.3072 40.494 29.3072 38.9413 29.3123 37.3835C29.3123 36.7762 29.7188 36.3892 30.3649 36.3892C32.0274 36.3841 33.695 36.3841 35.3571 36.3892C36.0032 36.3943 36.4047 36.7762 36.4098 37.3886C36.4123 37.6604 36.4112 37.9332 36.4098 38.2065C36.4083 38.4797 36.4072 38.7525 36.4098 39.0243C36.4098 39.3378 36.5402 39.4896 36.8058 39.4896C37.0715 39.4896 37.2124 39.3378 37.2124 39.0294C37.2175 38.5837 37.2229 38.1329 37.2124 37.6872C37.212 37.6684 37.2117 37.6495 37.2113 37.6307C37.2066 37.3893 37.2023 37.1451 37.1392 36.9132C36.9309 36.12 36.2221 35.6399 35.2843 35.6348C34.6031 35.6315 33.9197 35.6326 33.237 35.6337C32.896 35.6344 32.555 35.6348 32.2148 35.6348C32.1296 35.6348 32.0488 35.6308 31.9604 35.6264C31.9517 35.6261 31.9426 35.6257 31.9336 35.625V33.7639C32.5909 33.9879 33.2569 33.9719 33.9211 33.956C34.157 33.9505 34.3925 33.9447 34.6277 33.9498C35.2611 33.9636 35.8945 33.9607 36.5348 33.9574C36.8113 33.9563 37.0892 33.9549 37.3686 33.9549C37.3686 34.1487 37.3693 34.3386 37.3697 34.5256C37.3711 34.8919 37.3722 35.2474 37.3686 35.6007C37.3635 35.7964 37.3842 35.9779 37.603 36.0758C37.8117 36.1689 37.9679 36.0707 38.1241 35.958C38.984 35.3362 39.8439 34.714 40.7088 34.1067C40.8287 34.0234 41.0009 33.9744 41.152 33.9647C41.3473 33.9498 41.544 33.9476 41.7401 33.9455C42.0669 33.9415 42.392 33.9379 42.7047 33.8766C44.1067 33.6023 44.9926 32.5051 44.9977 31.1187C45.0013 29.5808 44.9999 28.0451 44.9988 26.5091C44.9984 25.7405 44.9977 24.972 44.9977 24.2027C44.9977 24.0795 44.9984 23.9566 44.9988 23.8338C45.0006 23.4033 45.0024 22.9728 44.9821 22.542ZM40.9643 25.7554H39.1405C39.1383 25.7336 39.1362 25.7202 39.1347 25.7108C39.1329 25.6967 39.1322 25.6927 39.1351 25.6869C39.1717 25.6035 39.2028 25.5202 39.2344 25.4369C39.5311 24.6335 39.4637 23.8548 39.0467 23.1004C38.9111 22.8507 38.6974 22.6942 38.3951 22.6742C37.8897 22.6402 37.5251 22.9634 37.5041 23.4826C37.4835 23.9088 37.374 24.3103 37.0925 24.6433C36.8254 24.9676 36.5373 25.2767 36.2583 25.5764C36.1453 25.6981 36.0333 25.8177 35.9253 25.9366C35.863 25.9213 35.805 25.9043 35.7496 25.8876C35.643 25.8557 35.547 25.8271 35.451 25.8239C34.81 25.8094 34.169 25.8141 33.5279 25.8191C33.1895 25.8239 33.0485 25.9514 33.0485 26.2696C33.0435 27.6951 33.0435 29.1203 33.0485 30.5458C33.0485 30.8788 33.1841 30.9962 33.5439 30.9962C34.1483 31.0013 34.7578 31.006 35.3626 30.9915C35.4966 30.9879 35.6285 30.9513 35.7492 30.9179C35.8014 30.9031 35.8518 30.8893 35.8992 30.8788C36.0478 30.9092 36.196 30.9476 36.3442 30.9861C36.6471 31.0647 36.9493 31.1433 37.2541 31.1531C38.3223 31.1868 39.3942 31.177 40.4635 31.1676C40.6411 31.1658 40.8182 31.1643 40.9958 31.1629C41.6002 31.1578 42.0224 30.7465 42.0274 30.1834C42.0325 29.0369 42.0325 27.8861 42.0274 26.7399C42.0224 26.1326 41.6053 25.7554 40.9643 25.7554ZM38.3064 23.5171C38.3125 23.4928 38.3194 23.4642 38.3274 23.4287C38.6557 24.0066 38.7079 24.5603 38.4944 25.1332C38.4307 25.3129 38.3524 25.4861 38.2745 25.6586C38.2375 25.7398 38.2009 25.8206 38.1661 25.9021C38.0201 26.25 38.1868 26.4852 38.5879 26.4852C39.3489 26.4899 40.1149 26.4899 40.8759 26.4899C41.1831 26.4899 41.2353 26.5392 41.2353 26.833V30.0805C41.2353 30.3744 41.1886 30.4182 40.8704 30.4182C40.4852 30.4182 40.0997 30.4179 39.7134 30.4171C38.9398 30.4161 38.1647 30.415 37.3896 30.4182C36.8946 30.4182 36.4464 30.2958 36.071 29.9921C35.9981 29.9334 35.9304 29.8258 35.9304 29.7374C35.9199 28.8902 35.9199 28.0426 35.9304 27.1954C35.9304 27.0976 35.9775 26.9896 36.0453 26.916C36.1029 26.8537 36.1601 26.791 36.2177 26.7287C36.5971 26.3163 36.9751 25.9054 37.3686 25.5053C37.8951 24.9669 38.2339 24.3545 38.2857 23.6149C38.289 23.5845 38.2962 23.5562 38.3064 23.5171ZM33.8512 26.5881H35.1332V30.2421H33.8512V26.5881Z" fill="black"/>
<path d="M24.8531 30.6962C24.9259 30.2798 24.9991 29.883 25.0669 29.4815C25.1187 29.1877 25.2908 29.0308 25.5303 29.0652C25.7807 29.0992 25.8901 29.2855 25.843 29.5844C25.7858 29.9468 25.7235 30.3045 25.6557 30.7009C25.9423 30.7009 26.2079 30.711 26.4685 30.6911C26.5206 30.6864 26.5989 30.5788 26.6091 30.5052C26.6768 30.1769 26.7239 29.8486 26.7812 29.5207C26.7917 29.4717 26.8018 29.4275 26.8178 29.3786C26.8855 29.1384 27.0624 29.021 27.2867 29.0699C27.5106 29.1188 27.6306 29.3004 27.5889 29.5402C27.5211 29.9175 27.4534 30.2947 27.3805 30.7009C27.7661 30.7009 28.1255 30.6962 28.4854 30.7009C28.7977 30.706 28.9854 30.936 28.8916 31.1908C28.8238 31.377 28.6622 31.4455 28.4643 31.4408C28.0683 31.4408 27.6671 31.4408 27.2555 31.4408C27.2033 31.7347 27.1562 32.0137 27.099 32.3224C27.495 32.3224 27.865 32.3224 28.235 32.3224C28.3237 32.3224 28.4071 32.3174 28.4955 32.3224C28.7666 32.342 28.9126 32.479 28.9126 32.6997C28.9126 32.9149 28.756 33.0667 28.4904 33.0718C28.0578 33.0816 27.6255 33.0816 27.1928 33.0718C27.0207 33.0667 26.9479 33.1109 26.9272 33.2823C26.8801 33.6447 26.8073 34.0074 26.7341 34.3647C26.6823 34.6292 26.5051 34.747 26.2601 34.7028C26.0358 34.6637 25.9162 34.4676 25.963 34.2129C26.0307 33.8458 26.0934 33.4784 26.1663 33.0914C25.843 33.0914 25.5463 33.0914 25.2386 33.0914C25.1604 33.5175 25.0875 33.9339 25.0093 34.3451C24.9625 34.6097 24.7958 34.7372 24.5509 34.7028C24.3266 34.6734 24.2016 34.5118 24.2331 34.2524C24.2849 33.8654 24.3581 33.4831 24.4309 33.0718C24.0559 33.0718 23.7066 33.0765 23.3522 33.0718C23.0811 33.0667 22.8989 32.9051 22.8989 32.6946C22.8989 32.484 23.0811 32.3272 23.3576 32.3224C23.6754 32.3127 23.9983 32.3127 24.3215 32.3224C24.5038 32.3272 24.6081 32.2978 24.6186 32.092C24.6291 31.8865 24.6864 31.6807 24.7281 31.4408C24.3215 31.4408 23.9515 31.4408 23.5816 31.4408C23.4928 31.4408 23.4094 31.4408 23.321 31.4357C23.0656 31.4212 22.8938 31.2643 22.9039 31.0585C22.9145 30.8531 23.0916 30.7009 23.3471 30.7009C23.7953 30.6962 24.2487 30.7009 24.6965 30.7009C24.7331 30.7009 24.7748 30.6962 24.8531 30.6962ZM26.4478 31.4604C26.1246 31.4604 25.838 31.4604 25.5252 31.4604C25.4731 31.7394 25.4263 32.0188 25.3691 32.3127C25.6869 32.3127 25.984 32.3127 26.2964 32.3127C26.3485 32.0384 26.3956 31.7688 26.4478 31.4604Z" fill="black"/>
<path d="M32.8 37.8818C33.4721 37.4556 34.1653 37.6318 34.5665 37.9651C35.0564 38.3717 35.2285 39.1062 34.8947 39.7135C34.7074 40.0516 34.4208 40.3553 34.1186 40.61C33.8059 40.8695 33.42 41.0608 33.05 41.2517C32.9355 41.3104 32.7427 41.33 32.6333 41.2811C32.039 40.997 31.4607 40.6883 31.0179 40.1936C30.6374 39.7675 30.4914 39.2729 30.5907 38.7341C30.7834 37.7495 31.9296 37.2792 32.8 37.8818ZM34.2697 39.1113C34.2697 38.7192 34.0976 38.484 33.816 38.396C33.5399 38.3126 33.3837 38.3764 33.1493 38.6703C32.9511 38.9203 32.6594 38.9152 32.4666 38.646C32.3155 38.4304 32.1278 38.3322 31.8567 38.3717C31.5023 38.4304 31.273 38.8174 31.3773 39.2189C31.5545 39.9096 32.1905 40.169 32.7478 40.4973C33.0398 40.3455 33.3366 40.1987 33.6287 40.0418C33.7327 39.9831 33.816 39.8998 33.9048 39.8215C34.1237 39.6008 34.2642 39.3464 34.2697 39.1113Z" fill="black"/>
<defs>
<filter id="filter0_d" x="6" y="10" width="53" height="53" filterUnits="userSpaceOnUse" color-interpolation-filters="sRGB">
<feFlood flood-opacity="0" result="BackgroundImageFix"/>
<feColorMatrix in="SourceAlpha" type="matrix" values="0 0 0 0 0 0 0 0 0 0 0 0 0 0 0 0 0 0 127 0"/>
<feOffset dy="4"/>
<feGaussianBlur stdDeviation="2"/>
<feColorMatrix type="matrix" values="0 0 0 0 0 0 0 0 0 0 0 0 0 0 0 0 0 0 0.19 0"/>
<feBlend mode="normal" in2="BackgroundImageFix" result="effect1_dropShadow"/>
<feBlend mode="normal" in="SourceGraphic" in2="effect1_dropShadow" result="shape"/>
</filter>
</defs>
</svg>
