<svg width="65" height="65" viewBox="0 0 65 65" fill="none" xmlns="http://www.w3.org/2000/svg">
<circle cx="32.5" cy="32.5" r="32" stroke="black"/>
<g filter="url(#filter0_d)">
<circle cx="32.5" cy="32.5" r="22.5" fill="white"/>
</g>
<path d="M23.6923 23.6923H40.3077M27.3846 22.7692V20M22.7692 39.3846V35.6923H41.2308V39.3846M32 32V39.3846M38.4615 32H25.5385C24.5231 32 23.6923 31.1692 23.6923 30.1538V21.8462C23.6923 20.8308 24.5231 20 25.5385 20H38.4615C39.4769 20 40.3077 20.8308 40.3077 21.8462V30.1538C40.3077 31.1692 39.4769 32 38.4615 32ZM20 39.3846H25.5385V44.9231H20V39.3846ZM29.2308 39.3846H34.7692V44.9231H29.2308V39.3846ZM38.4615 39.3846H44V44.9231H38.4615V39.3846Z" stroke="black" stroke-miterlimit="10" stroke-linecap="round" stroke-linejoin="round"/>
<defs>
<filter id="filter0_d" x="6" y="10" width="53" height="53" filterUnits="userSpaceOnUse" color-interpolation-filters="sRGB">
<feFlood flood-opacity="0" result="BackgroundImageFix"/>
<feColorMatrix in="SourceAlpha" type="matrix" values="0 0 0 0 0 0 0 0 0 0 0 0 0 0 0 0 0 0 127 0"/>
<feOffset dy="4"/>
<feGaussianBlur stdDeviation="2"/>
<feColorMatrix type="matrix" values="0 0 0 0 0 0 0 0 0 0 0 0 0 0 0 0 0 0 0.19 0"/>
<feBlend mode="normal" in2="BackgroundImageFix" result="effect1_dropShadow"/>
<feBlend mode="normal" in="SourceGraphic" in2="effect1_dropShadow" result="shape"/>
</filter>
</defs>
</svg>
