<svg width="65" height="65" viewBox="0 0 65 65" fill="none" xmlns="http://www.w3.org/2000/svg">
<circle cx="32.5" cy="32.5" r="32" stroke="black"/>
<g filter="url(#filter0_d)">
<circle cx="32.5" cy="32.5" r="22.5" fill="white"/>
</g>
<path d="M42.4649 23.1054C42.6211 23.1815 42.7976 23.225 42.9842 23.225C43.6495 23.225 44.1938 22.6815 44.1938 22.0147C44.1938 21.3516 43.6495 20.8081 42.9842 20.8081C42.3185 20.8081 41.7743 21.3516 41.7743 22.0147C41.7743 22.2032 41.8196 22.3771 41.8953 22.5365L41.0434 23.3881C38.8054 21.29 35.8015 20 32.5 20C30.0707 20 27.7219 20.6994 25.6956 22.0147H21.6129C20.7258 22.0147 20 22.7431 20 23.6272V41.3684C20 42.2526 20.7258 42.9809 21.6129 42.9809H25.6905C27.7168 44.2999 30.0707 44.9956 32.5 44.9956C34.8992 44.9956 37.223 44.3108 39.2341 43.0244L40.756 44.5463C41.0485 44.8398 41.4365 44.9993 41.85 44.9993C42.7019 44.9993 43.3922 44.3108 43.3922 43.4592C43.3922 43.0461 43.2309 42.6584 42.9385 42.3649L41.6181 41.0459C43.8006 38.7159 45 35.6975 45 32.4978C45 29.1967 43.71 26.1928 41.613 23.957L42.4649 23.1054ZM42.9842 21.6125C43.206 21.6125 43.3871 21.7937 43.3871 22.0147C43.3871 22.2358 43.206 22.4206 42.9842 22.4206C42.7624 22.4206 42.5809 22.2358 42.5809 22.0147C42.5809 21.7937 42.7624 21.6125 42.9842 21.6125ZM21.6129 22.8228H31.2904C31.734 22.8228 32.0967 23.1852 32.0967 23.6272V25.2397H20.8066V23.6272C20.8066 23.1852 21.1693 22.8228 21.6129 22.8228ZM35.3228 34.1103H34.5162V28.4647H35.3228V34.1103ZM32.9033 34.1103V34.9148H36.9154C36.7139 36.9513 34.9901 38.5456 32.9033 38.5456C30.6806 38.5456 28.871 36.7375 28.871 34.5126C28.871 32.2913 30.6806 30.4831 32.9033 30.4831C33.1754 30.4831 33.4425 30.5157 33.7099 30.5737V34.1103H32.9033ZM38.5485 34.1103H37.7419V30.8853H38.5485V34.1103ZM33.7099 29.7475C33.4425 29.7004 33.1754 29.675 32.9033 29.675C30.2371 29.675 28.0647 31.8492 28.0647 34.5126C28.0647 37.1795 30.2371 39.3501 32.9033 39.3501C35.4337 39.3501 37.5151 37.397 37.722 34.9148H38.5282C38.3217 37.839 35.8823 40.1581 32.9033 40.1581C29.7885 40.1581 27.2581 37.6289 27.2581 34.5126C27.2581 31.3999 29.7885 28.8706 32.9033 28.8706C33.1754 28.8706 33.4425 28.896 33.7099 28.9358V29.7475ZM26.4518 34.5126C26.4518 34.6503 26.4616 34.7807 26.4718 34.9148H22.4195V30.8853H27.5755C26.8649 31.9181 26.4518 33.1682 26.4518 34.5126ZM28.231 30.0773H21.6129V35.7228H26.5674C26.6182 35.9982 26.6885 36.2664 26.7794 36.5273H21.6129V37.3353H27.1121C27.4041 37.9296 27.7824 38.4732 28.231 38.9479H20.8066V26.0478H32.0967V28.1169C30.5849 28.3089 29.2341 29.0264 28.231 30.0773ZM20.8066 41.3684V39.7559H29.1583C30.0102 40.3647 31.0132 40.7705 32.0967 40.9082V41.3684C32.0967 41.8105 31.734 42.1728 31.2904 42.1728H21.6129C21.1693 42.1728 20.8066 41.8105 20.8066 41.3684ZM32.5 44.1876C30.6907 44.1876 28.9315 43.7709 27.3287 42.9809H31.2904C32.1775 42.9809 32.9033 42.2526 32.9033 41.3684V40.9626C34.123 40.9626 35.2623 40.6147 36.2348 40.0277L38.6442 42.4338C36.7994 43.5788 34.6876 44.1876 32.5 44.1876ZM42.5809 43.452C42.5809 43.8615 42.2482 44.1876 41.8449 44.1876C41.6482 44.1876 41.4619 44.1115 41.3257 43.9738L36.9103 39.5566C37.2984 39.2486 37.6462 38.9044 37.9539 38.513L42.3693 42.9302C42.5051 43.0715 42.5809 43.2563 42.5809 43.452ZM44.1938 32.4978C44.1938 35.4801 43.0748 38.2992 41.0484 40.4698L38.4173 37.8426C38.9417 36.9766 39.2693 35.9837 39.3348 34.9148H43.3871V34.1103H42.5809V27.6603H40.1614V34.1103H39.3551V30.0773H36.9357V34.1103H36.129V27.6603H33.7099V28.1169C33.4425 28.0843 33.1754 28.0625 32.9033 28.0625V23.6272C32.9033 22.7431 32.1775 22.0147 31.2904 22.0147H27.3287C28.9315 21.2248 30.6907 20.8081 32.5 20.8081C35.5797 20.8081 38.3822 22.0039 40.4741 23.957L39.4707 24.9571C39.3145 24.8846 39.1381 24.8375 38.9518 24.8375C38.6895 24.8375 38.4478 24.9245 38.251 25.0658L36.0787 23.5475C36.1091 23.4461 36.129 23.341 36.129 23.225C36.129 22.5583 35.5848 22.0147 34.9195 22.0147C34.2542 22.0147 33.7099 22.5583 33.7099 23.225C33.7099 23.8918 34.2542 24.4353 34.9195 24.4353C35.1815 24.4353 35.4235 24.3483 35.6199 24.207L37.7926 25.7253C37.7622 25.8268 37.7419 25.9318 37.7419 26.0478C37.7419 26.7109 38.2865 27.2581 38.9518 27.2581C39.6171 27.2581 40.1614 26.7109 40.1614 26.0478C40.1614 25.8594 40.1161 25.6854 40.0404 25.5296L41.0434 24.5259C42.994 26.6167 44.1938 29.4178 44.1938 32.4978ZM41.7743 34.1103H40.968V28.4647H41.7743V34.1103ZM38.9518 25.6456C39.1736 25.6456 39.3551 25.8267 39.3551 26.0478C39.3551 26.2688 39.1736 26.45 38.9518 26.45C38.7301 26.45 38.5485 26.2688 38.5485 26.0478C38.5485 25.8267 38.7301 25.6456 38.9518 25.6456ZM34.9195 23.6272C34.6977 23.6272 34.5162 23.4461 34.5162 23.225C34.5162 23.004 34.6977 22.8228 34.9195 22.8228C35.1412 22.8228 35.3228 23.004 35.3228 23.225C35.3228 23.4461 35.1412 23.6272 34.9195 23.6272ZM24.4357 40.5604H28.4676V41.3684H24.4357V40.5604ZM22.4195 27.6603H21.6129V26.8523H22.4195V27.6603ZM24.0323 27.6603H23.2257V26.8523H24.0323V27.6603ZM25.6452 27.6603H24.8386V26.8523H25.6452V27.6603ZM31.2904 26.8523V27.6603H26.4518V26.8523H31.2904ZM21.6129 28.4647H26.4518V29.2728H21.6129V28.4647ZM27.2581 28.4647H28.0647V29.2728H27.2581V28.4647Z" fill="black"/>
<defs>
<filter id="filter0_d" x="6" y="10" width="53" height="53" filterUnits="userSpaceOnUse" color-interpolation-filters="sRGB">
<feFlood flood-opacity="0" result="BackgroundImageFix"/>
<feColorMatrix in="SourceAlpha" type="matrix" values="0 0 0 0 0 0 0 0 0 0 0 0 0 0 0 0 0 0 127 0"/>
<feOffset dy="4"/>
<feGaussianBlur stdDeviation="2"/>
<feColorMatrix type="matrix" values="0 0 0 0 0 0 0 0 0 0 0 0 0 0 0 0 0 0 0.19 0"/>
<feBlend mode="normal" in2="BackgroundImageFix" result="effect1_dropShadow"/>
<feBlend mode="normal" in="SourceGraphic" in2="effect1_dropShadow" result="shape"/>
</filter>
</defs>
</svg>
