<svg width="65" height="65" viewBox="0 0 65 65" fill="none" xmlns="http://www.w3.org/2000/svg">
<circle cx="32.5" cy="32.5" r="32" stroke="black"/>
<g filter="url(#filter0_d)">
<circle cx="32.5" cy="32.5" r="22.5" fill="white"/>
</g>
<path d="M20 21V43.1243H45V21H20ZM36.5723 22.4648L33.8161 25.7903H21.4648V22.4648H36.5723ZM43.5352 41.6595H21.4648V27.2552H34.5046L38.4749 22.4648H43.5352V41.6595Z" fill="black"/>
<path d="M23.1413 24.1337C23.1413 23.7292 23.4692 23.3972 23.8737 23.3972V23.3972C24.2782 23.3972 24.6061 23.7292 24.6061 24.1337V24.1337C24.6061 24.5382 24.2782 24.8702 23.8737 24.8702V24.8702C23.4692 24.8702 23.1413 24.5382 23.1413 24.1337V24.1337Z" fill="black"/>
<path d="M25.8431 24.1337C25.8431 23.7292 26.171 23.3972 26.5755 23.3972V23.3972C26.98 23.3972 27.308 23.7292 27.308 24.1337V24.1337C27.308 24.5382 26.98 24.8702 26.5755 24.8702V24.8702C26.171 24.8702 25.8431 24.5382 25.8431 24.1337V24.1337Z" fill="black"/>
<path d="M28.5449 24.1337C28.5449 23.7292 28.8728 23.3972 29.2773 23.3972V23.3972C29.6818 23.3972 30.0098 23.7292 30.0098 24.1337V24.1337C30.0098 24.5382 29.6818 24.8702 29.2773 24.8702V24.8702C28.8728 24.8702 28.5449 24.5382 28.5449 24.1337V24.1337Z" fill="black"/>
<path d="M29.9901 35.4557C29.9901 36.1423 29.4316 36.7008 28.745 36.7008C28.0584 36.7008 27.4999 36.1423 27.4999 35.4557V30.8903H26.0351V35.4557C26.0351 36.95 27.2507 38.1657 28.745 38.1657C30.2393 38.1657 31.455 36.95 31.455 35.4557V30.8903H29.9901V35.4557Z" fill="black"/>
<path d="M36.9866 30.8659L35.791 33.0191L34.5954 30.8659H32.9199L34.9532 34.528L32.9199 38.1901H34.5954L35.791 36.0368L36.9866 38.1901H38.6622L36.6288 34.528L38.6622 30.8659H36.9866Z" fill="black"/>
<defs>
<filter id="filter0_d" x="6" y="10" width="53" height="53" filterUnits="userSpaceOnUse" color-interpolation-filters="sRGB">
<feFlood flood-opacity="0" result="BackgroundImageFix"/>
<feColorMatrix in="SourceAlpha" type="matrix" values="0 0 0 0 0 0 0 0 0 0 0 0 0 0 0 0 0 0 127 0"/>
<feOffset dy="4"/>
<feGaussianBlur stdDeviation="2"/>
<feColorMatrix type="matrix" values="0 0 0 0 0 0 0 0 0 0 0 0 0 0 0 0 0 0 0.19 0"/>
<feBlend mode="normal" in2="BackgroundImageFix" result="effect1_dropShadow"/>
<feBlend mode="normal" in="SourceGraphic" in2="effect1_dropShadow" result="shape"/>
</filter>
</defs>
</svg>
